<svg width="88" height="47" viewBox="0 0 88 47" fill="none" xmlns="http://www.w3.org/2000/svg">
<path d="M2.37241 42.4109C2.33843 41.7876 2.28767 41.1637 2.27341 40.54C2.22412 38.2929 2.18973 36.0454 2.1467 33.798C2.1397 33.4231 2.21049 33.0122 2.07782 32.6854C1.93652 32.3383 1.63789 31.8816 1.33018 31.8093C0.760155 31.6758 0.426408 32.1476 0.443322 32.6842C0.567462 36.6922 0.647771 40.7048 0.908575 44.7058C0.998268 46.083 1.83806 46.4989 3.22574 46.1633C4.21162 45.9248 5.16179 45.5386 6.11991 45.199C8.89536 44.215 11.6686 43.2213 14.4423 42.2314C14.6431 42.1592 14.9031 42.1404 15.031 42.0013C15.2252 41.7885 15.474 41.4643 15.4297 41.2392C15.3845 41.0089 15.0108 40.6722 14.7882 40.6757C14.1559 40.686 13.4948 40.7573 12.9028 40.9662C10.4779 41.8234 8.07514 42.7422 5.66384 43.6358C5.08466 43.8503 4.50132 44.0565 3.62935 44.3717C3.82792 43.886 3.86938 43.6898 3.976 43.5382C5.72025 41.0426 7.32416 38.4308 9.25352 36.0862C13.5102 30.9124 18.089 29.7893 24.478 32.0288C27.9051 33.2303 30.9651 35.1187 34.0669 36.9518C37.2084 38.8085 40.3691 40.65 43.6266 42.2898C47.5491 44.2642 51.7521 44.7414 56.0158 43.7059C58.2439 43.1643 60.4909 42.5007 62.5552 41.5285C71.3427 37.3891 78.1682 31.0589 82.7934 22.532C86.1245 16.3906 87.4406 9.70758 87.2426 2.72254C87.2285 2.24445 87.2276 1.72362 87.0341 1.30737C86.8891 0.994592 86.4474 0.627632 86.1346 0.624252C85.5802 0.616695 85.5846 1.13811 85.6203 1.59384C85.9328 5.52786 85.4472 9.3921 84.5601 13.2092C82.5434 21.8975 77.6478 28.7396 70.8761 34.3575C66.7976 37.7417 62.3133 40.395 57.1459 41.8075C53.3149 42.8547 49.4882 42.9376 45.7623 41.4442C43.6263 40.5879 41.5532 39.5361 39.5445 38.4072C36.9695 36.9598 34.503 35.323 31.9631 33.8121C28.9483 32.0194 25.7992 30.5419 22.3518 29.7528C17.1855 28.5705 12.8124 29.9089 9.1702 33.6997C6.78319 36.1842 4.98614 39.1028 3.05787 41.9245C2.93864 42.0998 2.81518 42.2715 2.69361 42.4443C2.58624 42.433 2.47839 42.4202 2.37102 42.409L2.37241 42.4109Z" fill="white"/>
</svg>
