<svg width="137" height="137" viewBox="0 0 137 137" fill="none" xmlns="http://www.w3.org/2000/svg">
<path d="M71.5282 18.1301L72.2997 9.76565L74.9644 10.0114L78.0074 15.8235L78.1169 17.6412L78.332 17.6611L79.0032 10.384L80.7837 10.5482L80.0121 18.9127L77.3475 18.6669L74.2936 12.8418L74.1949 11.0371L73.9798 11.0173L73.3086 18.2944L71.5282 18.1301Z" fill="#1F3832"/>
<path d="M80.5442 18.8615L86.2364 11.7417L88.9615 12.5124L90.0822 21.5587L88.1076 21.0003L87.8116 18.2105L84.2204 17.1949L82.5073 19.4166L80.5442 18.8615ZM85.2175 15.9181L87.6309 16.6005L87.3399 13.8371L87.4515 13.0456L87.2436 12.9868L86.9126 13.7162L85.2175 15.9181Z" fill="#1F3832"/>
<path d="M90.6301 21.8316L94.2398 14.2468L98.4115 16.2321C99.5059 16.7529 100.139 17.5726 100.211 18.4837C100.246 18.9124 100.158 19.3489 99.941 19.804C99.7244 20.2591 99.4361 20.6136 99.0812 20.8566C98.3291 21.3758 97.2937 21.4014 96.1993 20.8805L93.7396 19.71L92.3421 22.6464L90.6301 21.8316ZM94.3636 18.3989L96.574 19.4508C97.0724 19.688 97.5068 19.6688 97.8086 19.4536C97.9835 19.3375 98.1093 19.1848 98.2073 18.9789C98.3001 18.7839 98.3393 18.5899 98.3191 18.3809C98.2958 18.011 98.0316 17.6726 97.5332 17.4354L95.3227 16.3835L94.3636 18.3989Z" fill="#1F3832"/>
<path d="M100.675 27.5284C98.6857 26.165 98.0583 24.4695 99.0757 22.9846L99.1639 22.8559L100.738 23.9344L100.677 24.0235C100.134 24.8155 100.503 25.6789 101.512 26.3708C102.265 26.8863 102.935 27.0546 103.37 26.8438C103.528 26.7626 103.662 26.6511 103.771 26.4927C103.859 26.3641 103.921 26.2317 103.936 26.0821C103.957 25.7329 103.746 25.3408 103.153 24.804L101.883 23.6861C100.958 22.8488 100.585 22.0985 100.647 21.3704C100.672 20.9946 100.81 20.6235 101.061 20.2573C101.319 19.8811 101.638 19.6056 102.01 19.4239C102.978 18.9669 104.323 19.2337 105.788 20.2376C107.777 21.601 108.399 23.2632 107.381 24.748L107.293 24.8767L105.719 23.7982L105.78 23.7091C106.323 22.9172 105.98 22.1007 104.951 21.3952C104.208 20.8865 103.512 20.7145 103.093 20.9222C102.942 20.9935 102.808 21.105 102.699 21.2634C102.611 21.3921 102.556 21.5145 102.551 21.6709C102.52 22.0133 102.731 22.4054 103.333 22.949L104.614 24.0737C105.519 24.8974 105.895 25.6644 105.829 26.3758C105.798 26.7615 105.653 27.1425 105.402 27.5087C105.144 27.8849 104.818 28.1703 104.446 28.352C103.488 28.8157 102.14 28.5323 100.675 27.5284Z" fill="#1F3832"/>
<path d="M104.162 29.4201L112.541 25.8294L114.58 27.7949L111.298 36.2993L109.821 34.8752L110.877 32.2759L108.19 29.6857L105.631 30.8359L104.162 29.4201ZM109.671 29.0306L111.477 30.7712L112.525 28.1975L112.997 27.5523L112.841 27.4024L112.205 27.8893L109.671 29.0306Z" fill="#1F3832"/>
<path d="M111.694 36.8986L118.398 31.8375L119.54 33.3507L114.053 37.4935L116.815 41.1521L115.598 42.0703L111.694 36.8986Z" fill="#1F3832"/>
<path d="M116.092 43.0089L123.283 38.6675L124.263 40.2907L117.072 44.632L116.092 43.0089Z" fill="#1F3832"/>
<path d="M120.715 52.9071C119.846 50.5034 120.211 48.4065 121.672 47.1891C122.073 46.8525 122.553 46.5899 123.094 46.394C123.636 46.1981 124.172 46.0935 124.696 46.0955C126.571 46.0937 128.211 47.453 129.089 49.8793C129.962 52.2943 129.571 54.3881 128.128 55.586C127.722 55.9113 127.247 56.1852 126.706 56.3811C126.164 56.577 125.627 56.6816 125.104 56.6797C123.24 56.6773 121.593 55.3334 120.715 52.9071ZM123.763 48.2447C123.391 48.3794 123.073 48.5582 122.798 48.7853C121.887 49.5485 121.598 50.8654 122.148 52.3889C122.691 53.8898 123.733 54.7251 124.948 54.7325C125.305 54.7311 125.664 54.6651 126.036 54.5304C126.409 54.3957 126.727 54.2169 127.002 53.9898C127.913 53.2266 128.206 51.921 127.655 50.3975C127.105 48.8741 126.04 48.0468 124.852 48.0427C124.495 48.0441 124.136 48.1101 123.763 48.2447Z" fill="#1F3832"/>
<path d="M123.59 61.6101L131.954 60.8312L132.202 63.4957L127.049 67.555L125.282 67.9968L125.302 68.2118L132.578 67.5342L132.744 69.3145L124.38 70.0934L124.132 67.4289L129.297 63.3565L131.053 62.9279L131.033 62.7128L123.756 63.3904L123.59 61.6101Z" fill="#1F3832"/>
<path d="M124.528 70.633L132.586 74.8959L132.337 77.717L123.659 80.5068L123.839 78.4628L126.525 77.6511L126.852 73.9335L124.349 72.6652L124.528 70.633ZM128.292 74.6746L128.073 77.173L130.733 76.3711L131.532 76.333L131.55 76.1178L130.772 75.9288L128.292 74.6746ZM133.19 75.5514L134.424 76.5876L134.252 78.548L133.048 77.1652L133.19 75.5514Z" fill="#1F3832"/>
<path d="M122.42 84.2135C123.029 81.8797 124.412 80.7153 126.153 81.1699L126.304 81.2093L125.823 83.0555L125.718 83.0282C124.789 82.7857 124.101 83.4247 123.792 84.609C123.562 85.4915 123.63 86.1791 123.976 86.5174C124.106 86.6381 124.256 86.7269 124.442 86.7754C124.593 86.8148 124.739 86.828 124.884 86.7917C125.22 86.6933 125.518 86.3616 125.822 85.6226L126.444 84.0486C126.919 82.8951 127.498 82.2899 128.205 82.1022C128.567 81.9982 128.962 82.0023 129.392 82.1145C129.833 82.2297 130.201 82.4372 130.497 82.7255C131.255 83.4814 131.459 84.8369 131.011 86.5554C130.402 88.8891 129.048 90.0364 127.306 89.5818L127.155 89.5424L127.637 87.6963L127.742 87.7235C128.671 87.966 129.323 87.3674 129.638 86.1598C129.865 85.289 129.791 84.5752 129.454 84.2515C129.336 84.1339 129.186 84.045 129 83.9965C128.849 83.9571 128.715 83.947 128.566 83.9949C128.233 84.0817 127.936 84.4133 127.629 85.164L127.004 86.7496C126.535 87.8799 125.941 88.4937 125.249 88.6728C124.876 88.7737 124.468 88.7665 124.039 88.6544C123.597 88.5392 123.218 88.3286 122.921 88.0403C122.161 87.2961 121.971 85.9319 122.42 84.2135Z" fill="#1F3832"/>
<path d="M117.583 97.4903L124.492 102.267L122.97 104.469L116.413 104.268L114.775 103.471L114.652 103.649L120.664 107.805L119.647 109.275L112.737 104.498L114.259 102.297L120.833 102.495L122.454 103.295L122.577 103.117L116.566 98.961L117.583 97.4903Z" fill="#1F3832"/>
<path d="M112.516 104.988L115.94 113.436L113.934 115.436L105.497 111.986L106.95 110.537L109.528 111.644L112.171 109.01L111.072 106.428L112.516 104.988ZM112.796 110.504L111.02 112.275L113.572 113.373L114.208 113.858L114.361 113.705L113.887 113.06L112.796 110.504Z" fill="#1F3832"/>
<path d="M104.975 112.349L109.835 119.2L106.067 121.873C105.078 122.575 104.054 122.728 103.224 122.345C102.832 122.167 102.494 121.877 102.203 121.466C101.911 121.055 101.742 120.63 101.703 120.202C101.617 119.292 102.1 118.376 103.088 117.675L105.31 116.098L103.429 113.446L104.975 112.349ZM106.15 117.283L104.154 118.699C103.703 119.018 103.508 119.407 103.549 119.775C103.565 119.985 103.637 120.169 103.769 120.355C103.894 120.531 104.044 120.66 104.236 120.744C104.57 120.905 104.995 120.839 105.445 120.52L107.442 119.103L106.15 117.283Z" fill="#1F3832"/>
<path d="M95.1085 118.341C97.269 117.268 99.0553 117.547 99.8556 119.159L99.925 119.299L98.2159 120.147L98.1679 120.051C97.7411 119.191 96.8076 119.091 95.7112 119.636C94.8943 120.041 94.4206 120.544 94.3924 121.027C94.3865 121.204 94.4182 121.376 94.5036 121.548C94.573 121.688 94.6585 121.806 94.7817 121.892C95.0763 122.081 95.5217 122.088 96.2791 121.832L97.8746 121.268C99.0564 120.869 99.8935 120.909 100.499 121.318C100.815 121.523 101.072 121.825 101.269 122.222C101.472 122.631 101.556 123.044 101.534 123.457C101.461 124.525 100.572 125.569 98.9816 126.359C96.8211 127.431 95.067 127.163 94.2667 125.551L94.1973 125.411L95.9063 124.563L95.9544 124.659C96.3812 125.519 97.261 125.618 98.3789 125.064C99.185 124.663 99.6749 124.139 99.6977 123.672C99.7089 123.506 99.6772 123.334 99.5918 123.162C99.5225 123.022 99.4423 122.915 99.3084 122.834C99.0245 122.64 98.5791 122.633 97.8109 122.894L96.2047 123.463C95.0444 123.852 94.1912 123.806 93.602 123.402C93.2807 123.187 93.0186 122.875 92.8212 122.477C92.6184 122.068 92.5284 121.644 92.5511 121.231C92.6132 120.169 93.5177 119.13 95.1085 118.341Z" fill="#1F3832"/>
<path d="M91.7759 120.457L90.8101 129.521L88.0986 130.338L82.2855 123.317L84.2502 122.725L86.0011 124.917L89.5744 123.84L89.8227 121.046L91.7759 120.457ZM89.4212 125.453L87.0199 126.176L88.7524 128.349L89.0843 129.076L89.2911 129.014L89.1775 128.221L89.4212 125.453Z" fill="#1F3832"/>
<path d="M81.5818 123.358L82.7029 131.683L80.8239 131.936L79.9062 125.122L75.3632 125.733L75.1598 124.223L81.5818 123.358Z" fill="#1F3832"/>
<path d="M74.0926 124.2L74.352 132.596L72.4569 132.654L72.1975 124.258L74.0926 124.2Z" fill="#1F3832"/>
<path d="M63.1729 123.388C65.695 123.803 67.3474 125.144 67.697 127.014C67.7948 127.529 67.7902 128.075 67.6968 128.643C67.6034 129.212 67.433 129.731 67.1756 130.187C66.262 131.825 64.2752 132.593 61.7293 132.175C59.1953 131.758 57.5587 130.395 57.2171 128.551C57.1311 128.038 57.1239 127.49 57.2173 126.922C57.3106 126.353 57.4811 125.834 57.7385 125.378C58.6501 123.752 60.627 122.97 63.1729 123.388ZM65.7548 128.324C65.819 127.934 65.8182 127.569 65.7542 127.218C65.5325 126.05 64.5244 125.155 62.9258 124.892C61.3509 124.634 60.1131 125.135 59.5139 126.192C59.341 126.504 59.2234 126.85 59.1592 127.241C59.095 127.631 59.0959 127.996 59.1598 128.347C59.3815 129.515 60.3778 130.408 61.9764 130.671C63.575 130.933 64.8166 130.408 65.4002 129.373C65.573 129.061 65.6906 128.715 65.7548 128.324Z" fill="#1F3832"/>
<path d="M54.1739 121.657L50.7694 129.336L48.323 128.251L47.2973 121.771L47.7745 120.014L47.577 119.926L44.6151 126.607L42.9805 125.883L46.3851 118.203L48.8314 119.288L49.8633 125.784L49.38 127.525L49.5774 127.613L52.5394 120.932L54.1739 121.657Z" fill="#1F3832"/>
<path d="M45.8609 118.076L38.1925 123.004L35.8564 121.404L37.6843 112.473L39.377 113.633L38.7663 116.371L41.8449 118.481L44.178 116.923L45.8609 118.076ZM40.4922 119.372L38.4233 117.955L37.8162 120.666L37.4576 121.381L37.6358 121.503L38.1825 120.917L40.4922 119.372ZM37.3245 123.21L35.8161 123.776L34.1927 122.664L35.9881 122.294L37.3245 123.21Z" fill="#1F3832"/>
<path d="M35.0575 109.572C36.7943 111.246 37.1326 113.022 35.8836 114.318L35.7754 114.43L34.4015 113.106L34.4764 113.029C35.1426 112.337 34.922 111.425 34.0406 110.576C33.3839 109.943 32.7508 109.666 32.2866 109.802C32.1178 109.856 31.9667 109.943 31.8334 110.082C31.7252 110.194 31.6426 110.314 31.6028 110.459C31.5242 110.8 31.6678 111.222 32.1632 111.849L33.2313 113.162C34.0048 114.141 34.2487 114.942 34.0666 115.65C33.9801 116.017 33.7827 116.36 33.4746 116.679C33.1582 117.008 32.7973 117.227 32.4006 117.344C31.3706 117.635 30.0887 117.149 28.8098 115.917C27.073 114.243 26.7353 112.501 27.9843 111.205L28.0925 111.093L29.4664 112.417L29.3915 112.495C28.7253 113.186 28.928 114.048 29.8266 114.914C30.4747 115.538 31.1334 115.823 31.5807 115.688C31.7411 115.642 31.8923 115.555 32.0255 115.416C32.1338 115.304 32.2081 115.192 32.2392 115.039C32.3264 114.706 32.1828 114.285 31.6788 113.649L30.602 112.328C29.8459 111.366 29.6016 110.547 29.784 109.857C29.8789 109.481 30.0845 109.13 30.3926 108.81C30.7091 108.482 31.0783 108.254 31.475 108.136C32.4963 107.837 33.7786 108.34 35.0575 109.572Z" fill="#1F3832"/>
<path d="M25.8167 98.8553L18.2771 102.559L17.0973 100.157L20.4699 94.5295L21.9638 93.4882L21.8686 93.2943L15.3091 96.5163L14.5208 94.9114L22.0604 91.208L23.2402 93.6099L19.8622 99.2533L18.3738 100.279L18.469 100.472L25.0284 97.2504L25.8167 98.8553Z" fill="#1F3832"/>
<path d="M21.7408 90.7878L12.698 89.6388L11.936 86.9112L19.0736 81.2414L19.6257 83.2178L17.3987 84.924L18.403 88.5183L21.1918 88.8231L21.7408 90.7878ZM16.7936 88.3325L16.1187 85.917L13.9116 87.6052L13.1779 87.9223L13.236 88.1304L14.0311 88.0328L16.7936 88.3325Z" fill="#1F3832"/>
<path d="M19.0206 80.6229L10.6661 81.4965L10.1856 76.9016C10.0595 75.6962 10.4289 74.7285 11.1692 74.1926C11.5167 73.9391 11.9351 73.7867 12.4364 73.7343C12.9377 73.6819 13.3905 73.7431 13.7829 73.9193C14.6181 74.2904 15.1796 75.1607 15.3057 76.3662L15.589 79.0754L18.8234 78.7371L19.0206 80.6229ZM14.1449 79.2264L13.8903 76.7917C13.8329 76.2427 13.59 75.882 13.2491 75.7366C13.0588 75.6479 12.8628 75.6202 12.6361 75.6439C12.4213 75.6664 12.2353 75.7341 12.0675 75.8602C11.764 76.0729 11.613 76.4748 11.6704 77.0238L11.925 79.4585L14.1449 79.2264Z" fill="#1F3832"/>
<path d="M18.6351 69.0546C18.5139 71.4636 17.3971 72.8852 15.5993 72.7948L15.4435 72.787L15.5394 70.8814L15.6473 70.8868C16.6061 70.935 17.1492 70.1694 17.2107 68.9469C17.2565 68.0361 17.0494 67.3768 16.642 67.116C16.4904 67.0243 16.325 66.9679 16.1333 66.9583C15.9775 66.9504 15.8324 66.9671 15.697 67.0324C15.3883 67.1971 15.1647 67.5824 15.017 68.3679L14.7289 70.0356C14.499 71.2616 14.0547 71.9722 13.4014 72.2997C13.0682 72.4752 12.6799 72.5518 12.2364 72.5295C11.781 72.5066 11.3789 72.3782 11.0296 72.1564C10.1339 71.5706 9.65794 70.2851 9.74717 68.5114C9.86836 66.1024 10.96 64.7035 12.7578 64.7939L12.9136 64.8018L12.8177 66.7073L12.7098 66.7019C11.751 66.6537 11.2343 67.3726 11.1716 68.6191C11.1263 69.5179 11.3443 70.2017 11.7403 70.4499C11.8799 70.5411 12.0453 70.5975 12.237 70.6071C12.3928 70.6149 12.5259 70.5976 12.6619 70.5203C12.97 70.3676 13.1936 69.9824 13.3419 69.1848L13.6306 67.5052C13.8593 66.3032 14.3162 65.5812 14.9569 65.265C15.3021 65.0901 15.7024 65.0141 16.1458 65.0365C16.6013 65.0594 17.0153 65.1883 17.3646 65.4102C18.2609 65.9839 18.7243 67.2808 18.6351 69.0546Z" fill="#1F3832"/>
<path d="M18.4224 65.1099L10.9822 59.8435L11.5922 57.078L20.5576 55.4306L20.1155 57.4345L17.3478 57.893L16.5438 61.5374L18.8618 63.1178L18.4224 65.1099ZM15.2109 60.6166L15.7512 58.1675L13.0094 58.6195L12.2128 58.5543L12.1662 58.7653L12.9138 59.0531L15.2109 60.6166Z" fill="#1F3832"/>
<path d="M20.8591 54.7959L13.0463 51.7105L13.7428 49.947L20.1381 52.4726L21.8219 48.2091L23.2393 48.7689L20.8591 54.7959Z" fill="#1F3832"/>
<path d="M23.7796 47.8629L16.33 43.9816L17.2061 42.3001L24.6556 46.1814L23.7796 47.8629Z" fill="#1F3832"/>
<path d="M29.8288 38.7534C28.2303 40.7479 26.2506 41.5295 24.4502 40.917C23.9537 40.7498 23.4798 40.4776 23.0303 40.1174C22.5808 39.7572 22.212 39.3539 21.9406 38.9058C20.9619 37.3063 21.2673 35.1983 22.8808 33.185C24.4868 31.1812 26.4777 30.4239 28.252 31.0308C28.7409 31.2074 29.2224 31.4702 29.6718 31.8304C30.1213 32.1906 30.4901 32.5939 30.7615 33.042C31.7309 34.6339 31.4423 36.7402 29.8288 38.7534ZM24.261 38.5817C24.57 38.8294 24.8885 39.0077 25.2257 39.1242C26.3517 39.5037 27.6265 39.0644 28.6396 37.8003C29.6377 36.5549 29.8075 35.2301 29.1806 34.1894C28.9935 33.8857 28.7501 33.6137 28.4411 33.3661C28.1321 33.1184 27.8136 32.9401 27.4764 32.8236C26.3504 32.4441 25.0831 32.874 24.07 34.1381C23.0569 35.4022 22.9058 36.7421 23.5215 37.7584C23.7086 38.0621 23.952 38.3341 24.261 38.5817Z" fill="#1F3832"/>
<path d="M35.7783 31.7398L30.7371 25.0207L32.8776 23.4147L39.034 25.6816L40.3351 26.9558L40.5078 26.8261L36.122 20.9805L37.5522 19.9074L42.5934 26.6266L40.4529 28.2325L34.2797 25.9632L32.9955 24.6915L32.8227 24.8211L37.2085 30.6667L35.7783 31.7398Z" fill="#1F3832"/>
<path d="M42.9441 26.2325L42.38 17.1346L44.9167 15.8753L51.8224 21.8253L49.9844 22.7377L47.8915 20.8695L44.5487 22.5289L44.7714 25.3255L42.9441 26.2325ZM44.4299 20.9132L46.6763 19.798L44.6048 17.946L44.1559 17.2846L43.9624 17.3806L44.2071 18.1434L44.4299 20.9132ZM42.624 16.2766L42.8647 14.6834L44.6275 13.8084L44.075 15.5563L42.624 16.2766Z" fill="#1F3832"/>
<path d="M55.6286 20.954C53.3192 21.6499 51.6047 21.0762 51.0854 19.3527L51.0404 19.2034L52.8672 18.6529L52.8984 18.7563C53.1754 19.6754 54.0791 19.9295 55.2511 19.5763C56.1243 19.3132 56.6755 18.8964 56.7841 18.425C56.8195 18.2514 56.817 18.0767 56.7616 17.8929C56.7166 17.7435 56.6521 17.6126 56.545 17.507C56.2861 17.2717 55.8481 17.1906 55.0586 17.3157L53.3912 17.6051C52.1593 17.8009 51.3407 17.6214 50.8125 17.1164C50.5352 16.8615 50.3325 16.5216 50.2044 16.0965C50.0728 15.6598 50.0585 15.238 50.15 14.8345C50.4004 13.794 51.451 12.9134 53.1515 12.401C55.4609 11.705 57.1454 12.2627 57.6648 13.9862L57.7098 14.1355L55.8829 14.686L55.8518 14.5826C55.5748 13.6635 54.7239 13.4185 53.529 13.7786C52.6673 14.0383 52.0966 14.4735 51.996 14.9299C51.9571 15.092 51.9596 15.2667 52.015 15.4506C52.06 15.5999 52.1211 15.7194 52.2396 15.8215C52.487 16.0603 52.9251 16.1414 53.726 16.0128L55.4049 15.7199C56.6139 15.5311 57.4474 15.7186 57.9606 16.2156C58.2414 16.4819 58.4476 16.8334 58.5757 17.2585C58.7073 17.6951 58.725 18.1284 58.6336 18.532C58.3946 19.569 57.3291 20.4416 55.6286 20.954Z" fill="#1F3832"/>
</svg>
