<svg width="1440" height="41" viewBox="0 0 1440 41" fill="none" xmlns="http://www.w3.org/2000/svg">
<path d="M1512.68 6.26872C1511.8 6.89949 1512.19 7.4174 1511.53 8.02936C1511.14 8.39302 1508.59 8.94228 1504.4 9.49154C1495.55 10.6452 1487.04 11.8303 1478.78 12.92C1474.66 13.4755 1470.6 14.0323 1466.6 14.5904C1464.6 14.87 1462.62 15.1484 1460.64 15.423C1458.67 15.6926 1456.71 15.961 1454.77 16.2281C1449.15 17.0031 1443.03 17.7467 1436.59 18.464C1430.15 19.1562 1423.39 19.7983 1416.5 20.4278C1413.79 20.6711 1411.08 20.9269 1408.36 21.1601C1405.65 21.3909 1402.94 21.6204 1400.22 21.8511C1394.78 22.3101 1389.35 22.7678 1383.9 23.2268C1378.46 23.6531 1373.01 24.0795 1367.56 24.5071C1364.83 24.719 1362.11 24.931 1359.38 25.1416L1357.33 25.2996L1355.29 25.4476C1353.92 25.5454 1352.56 25.6432 1351.19 25.7423C1346.01 26.1097 1340.83 26.4784 1335.64 26.8471C1334.35 26.9386 1333.05 27.0302 1331.75 27.1205C1330.46 27.2057 1329.16 27.291 1327.86 27.375C1325.26 27.5431 1322.67 27.7124 1320.07 27.8804C1314.87 28.2152 1309.67 28.5488 1304.48 28.8836C1299.28 29.1946 1294.08 29.5069 1288.89 29.8179C1269.37 30.9966 1249.3 31.8506 1230.99 33.2413C1198.94 34.9556 1166.87 36.4064 1134.14 37.2228C1130.66 37.3093 1127.17 37.3971 1123.68 37.4836C1120.19 37.5664 1116.71 37.6454 1113.25 37.7457C1079.63 38.7239 1045.98 39.2606 1012.3 39.6556C999.588 39.8111 986.772 39.9678 974.027 40.1233C967.656 40.2111 961.303 40.2989 954.989 40.3867C948.675 40.4883 942.403 40.5886 936.189 40.6889C930.064 40.788 923.987 40.8657 917.94 40.9209C914.916 40.9523 911.899 40.9673 908.887 40.9773C905.876 40.9836 902.869 40.9899 899.864 40.9961C887.843 41.015 875.862 40.9084 863.755 40.7667C854.529 40.645 845.432 40.4745 836.459 40.2826C827.487 40.0744 818.637 39.8337 809.904 39.5716C799.884 39.2531 789.796 39.0123 779.563 38.828C769.332 38.6373 758.955 38.5358 748.362 38.4869C741.969 38.4605 735.624 38.3941 729.297 38.2887C722.971 38.1821 716.662 38.0442 710.338 37.8874C703.53 37.7219 696.66 37.5589 689.761 37.4147C682.864 37.2742 675.938 37.1338 669.026 36.9933C657.154 36.7601 646.255 36.4064 637.399 35.7205C629.451 35.1073 619.67 34.7725 609.203 34.4953C553.383 33.0168 497.697 31.4681 441.094 30.3847C397.345 29.5533 353.344 28.8937 310.153 27.9945C301.726 27.8265 293.123 27.6898 284.463 27.5983C275.803 27.513 267.085 27.4365 258.429 27.3851C222.576 27.1581 186.685 27.1217 150.797 27.3023C143.56 27.3462 136.317 27.3826 129.074 27.4478C121.83 27.5193 114.586 27.5907 107.343 27.6622C92.8589 27.8453 78.3844 28.0271 63.9476 28.2102C40.9255 28.4936 18.025 28.7758 -4.6413 29.0542C-10.4554 29.1332 -15.9801 29.1733 -21.1816 29.162C-22.4819 29.1557 -23.7622 29.1507 -25.0213 29.1445C-26.2803 29.1357 -27.518 29.1269 -28.7357 29.1181C-31.1699 29.093 -33.5175 29.0529 -35.7763 28.9952C-40.0795 28.8849 -44.5845 28.8109 -49.256 28.7682C-53.9276 28.7319 -58.7645 28.7457 -63.7367 28.7733C-66.2222 28.7933 -68.7428 28.8134 -71.2909 28.8347C-73.8403 28.8623 -76.4185 28.8849 -79.0217 28.9363C-84.2282 29.0278 -89.5349 29.1369 -94.9105 29.2561C-97.2783 29.3075 -99.6385 29.3576 -101.996 29.409C-104.353 29.4667 -106.704 29.5244 -109.052 29.5808C-113.747 29.6912 -118.426 29.8016 -123.096 29.9119C-125.432 29.9683 -127.764 30.0122 -130.096 30.0762C-132.427 30.1389 -134.756 30.2016 -137.085 30.2643C-141.743 30.3897 -146.398 30.5151 -151.057 30.6405C-152.797 30.6881 -155.103 30.6041 -154.87 30.4925C-154.6 30.3634 -152.042 30.105 -150.075 29.9621C-146.865 29.7288 -143.349 29.5319 -139.93 29.3401C-137.642 29.2122 -135.355 29.083 -133.067 28.9551C-130.78 28.8259 -128.491 28.6968 -126.202 28.5839C-121.624 28.3494 -117.046 28.1149 -112.468 27.8804C-103.314 27.3926 -94.1614 26.98 -85.025 26.5361C-81.9607 26.3881 -77.2891 26.0521 -76.6139 25.8727C-74.6709 25.3573 -70.7259 25.0401 -64.4621 24.7516C-61.0746 24.5961 -57.7899 24.3867 -54.5264 24.1911C-51.4521 24.0068 -50.9999 23.6268 -53.9727 23.6005C-56.8265 23.5754 -60.0824 23.608 -63.0189 23.5942C-63.7468 23.5904 -64.536 23.5001 -64.2353 23.4575C-63.0565 23.292 -61.7185 23.075 -59.9471 22.9772C-56.72 22.8004 -53.0995 22.6549 -49.717 22.5646C-42.2694 22.3753 -35.5595 22.0781 -29.3471 21.7069C-27.7937 21.6141 -26.2715 21.5175 -24.777 21.416C-23.2824 21.3207 -21.8142 21.2216 -20.371 21.1175C-17.4834 20.9118 -14.6897 20.6899 -11.9599 20.4591C-11.2596 20.4002 -10.5606 20.2748 -10.8625 20.2409C-11.8146 20.1344 -12.912 19.9701 -14.5457 19.9839C-18.3365 20.019 -22.1788 20.0566 -26.3154 20.1218C-30.452 20.1933 -34.8856 20.2685 -39.859 20.3538C-35.324 20.182 -30.9469 20.0152 -26.685 19.8535C-22.423 19.7005 -18.2751 19.5838 -14.2011 19.4685C-6.05316 19.2453 1.80292 19.0672 9.70035 19.0246C14.7653 18.9894 20.8788 18.6621 26.4711 18.4552C27.0662 18.4327 27.6788 18.3098 27.7314 18.2446C27.7865 18.1756 27.4959 18.0815 26.8006 18.064C25.0192 18.0163 23.0323 17.9561 20.9464 17.9862C17.2433 18.0326 13.5551 18.0778 9.86823 18.1242C8.02415 18.1455 6.18134 18.1668 4.33727 18.1881C2.49194 18.2082 0.646622 18.232 -1.2037 18.2646C-8.60129 18.3888 -16.0527 18.5393 -23.6721 18.7775C-24.8647 18.8126 -26.2715 18.6596 -27.3702 18.5806C-27.4629 18.5744 -26.0285 18.4126 -25.213 18.3812C-17.194 18.0978 -9.10866 17.8521 -1.14232 17.5498C0.86586 17.4721 2.1562 17.3818 2.77757 17.2777C3.39894 17.1724 3.3501 17.052 2.68112 16.9253C1.45592 16.6921 4.35857 16.4664 7.60323 16.2845C17.366 15.7403 27.8404 15.4418 38.3022 15.2613C42.8823 15.1747 47.4462 15.1697 51.9787 15.1409C60.5313 15.1058 67.9364 14.9189 73.3546 14.2819C74.4457 14.154 77.2996 14.0674 79.443 13.9809C88.2575 13.6524 98.1957 13.9395 106.515 13.4103C113.71 12.9689 121.921 12.9677 129.898 12.8285C138.092 12.7006 145.941 12.5049 152.281 12.0648C153.007 12.0146 153.633 11.8955 153.294 11.8491C152.475 11.7362 150.965 11.5481 149.896 11.5619C143.884 11.6372 137.836 11.6861 131.781 11.73C125.726 11.7927 119.664 11.8554 113.623 11.9181C110.603 11.9557 107.588 11.992 104.581 12.0435C101.574 12.0999 98.5765 12.1626 95.5912 12.2341C89.6205 12.3808 83.6987 12.5564 77.8558 12.8072C71.7498 12.7633 66.1199 12.8987 60.6754 13.0981C57.9531 13.1997 55.2772 13.3125 52.6101 13.4354C49.9429 13.5608 47.2871 13.6862 44.6024 13.8129C39.8907 14.0223 35.3244 14.1439 30.8495 14.2041C29.7308 14.2154 28.6171 14.2267 27.5097 14.238C26.401 14.2455 25.2985 14.253 24.1986 14.2606C22 14.2693 19.8164 14.2656 17.6416 14.253C16.6294 14.2468 15.0058 14.1941 15.1499 14.1653C15.904 14.0098 16.9714 13.8505 18.2755 13.7013C18.8906 13.631 20.285 13.5821 21.3135 13.5219C23.3743 13.4028 25.6844 13.2874 27.8329 13.1746C29.9826 13.0642 31.972 12.9489 33.3951 12.8109C36.3166 12.5275 31.5323 12.4811 29.2259 12.3833C39.6577 11.9682 36.2339 10.9061 49.8903 10.5838C53.3843 10.496 56.3834 9.95051 60.0978 9.85019C64.6617 9.72855 69.223 9.63074 73.327 9.47398C75.3791 9.39498 77.3171 9.30218 79.0835 9.18305C80.8499 9.06894 82.4447 8.93099 83.8114 8.75669C88.037 8.65135 92.2237 8.52219 96.4042 8.38926C100.585 8.25884 104.759 8.11212 108.957 8.00929C113.155 7.90145 117.378 7.80865 121.656 7.75222C123.796 7.72338 125.949 7.70457 128.12 7.69579C129.207 7.69579 130.297 7.69328 131.391 7.69203C132.486 7.70081 133.586 7.70833 134.691 7.71711C138.937 7.76225 143.404 7.90396 146.208 8.10335C148.019 8.23251 147.064 8.54727 147.191 8.78051C147.231 8.85325 146.755 8.92974 146.277 9.08022C141.533 9.23321 135.799 9.3536 131.022 9.58183C123.735 9.948 116.326 10.2465 108.627 10.4446C104.778 10.5374 100.855 10.6339 96.8389 10.6879C92.8226 10.7443 88.7122 10.7719 84.4854 10.7669C82.724 10.7669 79.9441 10.8973 78.5172 11.0214C77.044 11.1481 76.0017 11.3387 75.9616 11.4817C75.9228 11.6171 76.8886 11.8077 78.3619 11.834C81.3422 11.8905 85.0266 11.9231 88.3151 11.8604C121.875 11.2133 155.376 11.0979 188.895 11.0102C196.648 10.8572 204.745 10.7719 212.621 10.6578C220.497 10.5487 228.154 10.3882 235.028 10.0395C238.188 9.88405 238.37 9.61192 234.941 9.4953C232.892 9.42884 230.554 9.40125 228.492 9.33604C227.641 9.30845 226.46 9.20939 226.66 9.17427C227.402 9.0426 228.259 8.85199 229.786 8.81312C236.274 8.63881 243.065 8.55103 249.659 8.41183C253.99 8.3228 258.295 8.25884 262.577 8.22749C266.859 8.20241 271.117 8.20367 275.355 8.23376C279.594 8.26386 283.81 8.32029 288.008 8.40556C292.206 8.49711 296.386 8.61749 300.549 8.76421C305.848 8.95357 311.187 9.14042 316.743 9.28337C323.414 9.45643 330.388 9.66209 337.142 9.69218C346.895 9.73983 356.743 9.83138 366.426 9.8389C376.11 9.86273 385.629 9.8063 394.721 9.58183C397.989 9.50283 401.574 9.58183 404.193 9.79877C408.414 10.1474 413.583 10.3756 419.569 10.4371C424.05 10.486 429.982 10.5712 432.701 10.427C436.362 10.2339 440.234 10.1323 444.395 10.0884C448.555 10.0471 453.003 10.0646 457.814 10.106C462.185 10.1436 466.545 10.19 470.894 10.2452C475.244 10.3104 479.584 10.3756 483.919 10.4408C492.591 10.5825 501.241 10.7506 509.903 10.9274C515.667 11.0352 521.455 11.1431 527.238 11.2509C530.515 11.3099 533.005 11.1368 532.474 10.8785C532.147 10.7205 531.109 10.5562 530.946 10.4007C530.336 9.81508 533.594 9.47775 540.38 9.41128C542.549 9.38996 544.831 9.38495 547.109 9.39373C559.608 9.44514 567.38 9.07646 573.453 8.41058C580.025 7.68827 595.749 7.73216 605.87 8.50839C612.454 9.01251 618.783 9.26958 627.325 9.40501C647.006 9.71099 666.704 10.0283 686.322 10.3744C695.113 10.5286 701.979 10.7769 706.957 11.1418C711.933 11.5055 715.018 11.9908 716.245 12.6291C717.258 13.157 720.38 13.552 724.593 13.8844C726.699 14.0511 729.078 14.2016 731.602 14.3458C734.127 14.4875 736.795 14.6217 739.482 14.7584C741.772 14.875 746.979 14.8851 749.151 14.786C755.767 14.49 762.975 14.3759 771.368 14.4148C775.127 14.4311 778.887 14.4487 782.644 14.465C786.402 14.475 790.158 14.485 793.915 14.4951C801.428 14.5101 808.941 14.5252 816.455 14.5389C820.519 14.5502 824.571 14.5603 828.604 14.5716C832.637 14.5916 836.648 14.6242 840.628 14.6618C848.588 14.7421 856.427 14.9001 864.06 15.1672C867.116 15.2713 871.002 15.2525 874.188 15.344C878.31 15.4632 882.178 15.507 885.954 15.4832C889.729 15.4606 893.409 15.3541 897.153 15.1923C901.015 15.0243 906.066 15.2826 905.675 15.635C905.36 15.9196 906.59 16.0764 910 16.1842C912.088 16.2507 914.619 16.3786 916.408 16.3385C921.896 16.2231 926.953 16.2344 931.82 16.3084C934.253 16.346 936.639 16.3986 939.006 16.4601C941.373 16.5215 943.722 16.583 946.083 16.6444C953.382 16.8363 961.245 16.9416 968.974 17.047C976.702 17.146 984.295 17.2689 991.056 17.5448C996.781 17.5385 1002.5 17.5323 1008.23 17.5273C1011.09 17.5222 1013.95 17.5185 1016.82 17.5135C1019.68 17.4997 1022.55 17.4859 1025.42 17.4721C1031.12 17.4382 1037.02 17.3078 1042.64 17.2978C1065.36 17.2062 1087.87 17.1297 1111.05 16.6658C1114.43 16.6018 1117.79 16.5592 1121.1 16.5353C1124.41 16.509 1127.68 16.4864 1130.88 16.4927C1137.27 16.499 1143.37 16.588 1148.98 16.7397C1154.49 16.8727 1160.18 16.968 1166.08 17.0257C1169.02 17.0532 1172.02 17.0771 1175.06 17.0833C1178.11 17.0821 1181.2 17.0708 1184.35 17.0495C1187.49 17.0282 1190.69 16.9981 1193.93 16.9592C1197.18 16.9178 1200.47 16.8764 1203.82 16.7974C1210.52 16.652 1217.42 16.4676 1224.53 16.2444C1225.97 16.2018 1227.42 16.1504 1228.86 16.0964C1230.31 16.0438 1231.75 15.9911 1233.2 15.9384C1236.08 15.8306 1238.97 15.7215 1241.86 15.6136C1244.74 15.5008 1247.63 15.3892 1250.52 15.2763L1252.68 15.1898L1254.85 15.0932L1259.17 14.8963C1264.94 14.6305 1270.71 14.3546 1276.48 14.0649L1278.65 13.9546L1280.81 13.8342C1282.26 13.7527 1283.7 13.6699 1285.15 13.5884C1288.03 13.4191 1290.92 13.2498 1293.81 13.0793C1304.76 12.446 1315.67 11.74 1326.6 11.1017C1337.53 10.4295 1348.48 9.75488 1359.53 9.07521C1379.11 7.82872 1398.71 6.49068 1418.24 5.06738C1422.48 4.75889 1426.41 4.52188 1429.95 4.36262C1431.72 4.28111 1433.4 4.22593 1434.97 4.17828C1436.54 4.12937 1438.01 4.10053 1439.36 4.09301C1444.99 4.06416 1450.54 4.04661 1455.97 4.04535C1461.41 4.04034 1466.71 4.03407 1471.85 4.02905C1476.98 4.03658 1481.95 4.06918 1486.7 4.13063C1491.44 4.16449 1495.96 4.22969 1500.21 4.33503C1503.58 4.4178 1505.52 4.69243 1508.35 4.84918C1512.22 5.06236 1513.71 5.52133 1512.67 6.26998L1512.68 6.26872ZM-11.7921 23.7233C-12.3821 23.6807 -12.7818 23.6042 -13.5948 23.603C-16.5651 23.5992 -19.6544 23.6155 -22.735 23.6331C-25.3658 23.6431 -27.627 23.7923 -27.6671 23.9729C-27.6947 24.0945 -26.383 24.2174 -24.896 24.2425C-21.1126 24.319 -16.8307 24.1999 -12.8018 23.9177C-12.1955 23.8751 -12.1153 23.7898 -11.7921 23.7246V23.7233ZM120.753 13.9935C120.193 13.9433 119.659 13.8467 119.069 13.8517C117.307 13.8668 114.928 13.8881 113.884 13.9696C112.319 14.0913 113.41 14.2029 115.835 14.2267L120.753 13.9935ZM286.103 10.0245C286.161 9.78623 282.978 9.52414 280.37 9.53668C271.428 9.58308 262.706 9.6671 255.012 10.0007C254.373 10.0283 254.081 10.1587 254.481 10.2151C255.358 10.338 256.783 10.4433 258.061 10.5625C261.935 10.5612 265.836 10.5587 269.736 10.5575C273.635 10.5575 277.534 10.5524 281.403 10.5311C285.031 10.5111 286.049 10.2577 286.104 10.0245H286.103ZM399.328 10.9888C398.48 10.8672 397.114 10.6703 395.947 10.6578C390.396 10.5976 384.833 10.5951 379.307 10.5863C378.408 10.5863 376.875 10.7004 376.978 10.7117C378.031 10.8233 379.124 10.96 380.677 11.0202C382.67 11.0992 385.095 11.1155 388.225 11.1757C390.691 11.1631 394.024 11.1581 397.243 11.1305C398.151 11.1218 399.528 11.0164 399.328 10.9888Z" fill="#C8E8C3"/>
<path d="M86.6467 7.99058C85.8612 7.95672 85.1133 7.89151 84.2777 7.89904C83.3645 7.90656 82.3698 7.9818 81.4102 8.02695C82.2169 8.0608 83.0237 8.09341 83.8305 8.12727C84.7688 8.08212 85.7071 8.03698 86.6455 7.99058H86.6467Z" fill="#C8E8C3"/>
</svg>
