<svg width="1440" height="23" viewBox="0 0 1440 23" fill="none" xmlns="http://www.w3.org/2000/svg">
<g clip-path="url(#clip0_5348_11789)">
<path d="M1384.05 17.8731C1390.39 17.5919 1398.8 17.4998 1402.42 16.9646C1404.21 16.6989 1408.17 16.5784 1412.94 16.708C1420.43 16.8985 1425.92 16.8363 1431.74 16.7546C1435.55 16.7041 1439.88 16.6056 1443.94 16.7378C1453.38 17.0436 1461.79 17.0229 1470.63 17.2367C1479.49 17.4519 1488.82 17.9236 1497.83 18.3241C1503.42 18.5729 1508.69 18.941 1514.28 19.1717C1517.13 19.2896 1521.52 19.3142 1523.13 19.2105C1524.8 19.103 1524.89 18.801 1524.01 18.5651C1520.97 17.7487 1514.15 16.9905 1505.01 16.3179C1498.14 15.8124 1491.03 15.3174 1483.7 14.8586C1467.75 13.862 1453.29 12.7643 1441.37 11.5007C1438.07 11.1508 1434.43 10.8423 1430.46 10.5676C1428.48 10.4302 1426.42 10.3006 1424.28 10.1801C1422.14 10.0608 1419.92 9.93901 1417.62 9.8483C1409.78 9.52041 1401.9 9.18216 1393.94 8.91648C1382.5 8.53416 1370.73 8.2957 1359.52 7.84988C1349.01 7.43128 1338.82 7.2304 1328.69 7.0684C1323.63 6.99064 1318.58 6.91418 1313.52 6.83642C1308.45 6.77551 1303.38 6.70164 1298.26 6.59277C1278.72 6.69645 1257.94 6.37764 1237.39 5.99662C1230.2 5.86832 1223.02 5.74001 1215.85 5.61171C1214.06 5.5819 1212.27 5.5508 1210.48 5.52099C1208.69 5.49896 1206.9 5.47693 1205.11 5.4536C1201.53 5.41472 1197.96 5.37455 1194.39 5.33567C1180.11 5.18533 1165.88 5.0674 1151.7 4.98964C1149.48 4.97798 1147.11 4.90281 1144.81 4.85745C1140.64 4.44921 1135.29 4.24315 1129.42 4.27944C1121.67 4.32739 1114.48 4.24834 1106.1 3.94508C1097.5 3.65996 1088.01 3.57701 1078.95 3.47723C1071.51 3.39687 1066.37 3.65607 1063.73 4.10838C1062.53 4.31444 1061.77 4.53864 1060.81 4.75507C1062.79 4.80691 1064.73 4.8445 1066.65 4.87172C1064.73 4.8445 1062.79 4.80562 1060.81 4.75507C1056.06 4.94429 1050.68 4.97669 1044.75 4.89375C1039.01 4.82247 1033.27 4.74989 1027.53 4.67862C1024.78 4.51014 1022.25 4.27297 1019.23 4.18873C1013.77 4.0371 1008.02 3.95675 1002.4 3.88547C1000.34 3.85566 998.345 3.82585 996.403 3.79734C994.46 3.76365 992.573 3.71958 990.744 3.66386C987.088 3.5537 983.664 3.39559 980.49 3.17786C978.9 3.069 976.491 3.01716 974.446 2.94069C971.841 2.84349 967.2 2.98217 966.649 3.20508C965.721 3.58091 965.255 3.96583 964.594 4.34685C960.034 4.30538 955.478 4.2639 950.918 4.22243C935.333 3.54722 918.647 3.12732 901.408 3.06123C896.991 3.03531 892.627 3.01068 888.312 2.98606C883.997 2.95496 879.732 2.907 875.515 2.8435C867.081 2.7165 858.836 2.52987 850.763 2.294C838.154 1.92594 826.224 1.81449 813.948 2.1009C808.14 2.23569 802.941 2.16959 797.324 2.01019C792.501 1.87411 788.685 2.00241 785.568 2.29401C781.326 2.68281 775.957 2.63745 770.238 2.46249C760.5 2.16441 754.785 1.55141 747.203 1.08485C746.822 0.610519 742.49 0.46796 736.442 0.33577C726.475 0.118045 716.548 -0.0102577 706.082 0.000111608L682.828 0.0286228L659.574 0.155633L613.066 0.40706C605.448 0.373366 597.833 0.361701 590.193 0.379846C586.374 0.390215 582.548 0.403176 578.713 0.432984C574.878 0.477048 571.034 0.528886 567.179 0.59239C561.938 0.677927 556.481 0.597575 551.123 0.592391C548.657 0.46409 546.473 0.237291 543.676 0.225626C532.639 0.18286 521.393 0.197117 511.148 0.779019C507.648 0.876218 504.283 0.926763 501.642 0.734957C501.646 0.497789 500.407 0.245069 497.171 0.265806C489.832 0.313758 482.584 0.502973 475.046 0.435583C470.784 0.408368 467.227 0.73107 465.787 1.06803C459.766 1.44516 452.968 1.51385 446.182 1.58643C446.158 1.16005 443.342 0.930656 437.012 0.998048C430.876 1.06414 427.286 1.35056 425.896 1.77564C425.654 1.84952 425.67 1.92468 425.567 1.99985L398.764 2.2422C397.464 1.80545 392.92 1.65771 386.774 1.76658C380.297 1.88062 376.879 2.22536 376.504 2.68414L368.181 2.86299L359.858 3.07035C354.31 3.19606 348.761 3.28937 343.215 3.29326C341.547 3.12867 340.476 2.89928 338.071 2.81245C334.372 2.67896 329.437 2.76968 324.989 2.96537C320.728 3.152 316.902 3.43323 312.575 3.58875C295.978 4.16287 279.208 4.74478 262.538 5.32149C245.87 5.97727 229.305 6.66026 213.122 7.44434C210.08 7.59208 206.2 7.69317 203.083 7.70872C192.438 7.76574 183.227 8.03661 174.497 8.80254C171.957 9.02545 165.11 8.98268 161.456 9.19911C159.166 9.33001 156.927 9.48553 154.819 9.64234C152.71 9.80045 150.734 9.96375 148.97 10.1361C145.442 10.4809 142.765 10.8567 141.591 11.2779C134.905 11.6524 128.101 11.9103 121.091 11.9609C118.062 11.782 113.991 11.8079 109.243 11.9363C95.6815 12.303 81.7936 12.7864 68.6458 12.986C64.702 13.0456 60.7635 13.1182 56.8251 13.1986L53.8715 13.2608L50.9192 13.3398C48.9506 13.3943 46.9819 13.45 45.0133 13.5044C37.1388 13.739 29.2593 13.9749 21.355 14.2107C9.1687 14.5749 -1.29126 14.9948 -3.30127 16.1431C-4.04004 16.5668 -9.04773 16.9997 -14.0204 17.373C-19.1771 17.7592 -22.5311 18.1635 -23.0885 18.6093C-29.7732 18.8284 -36.4579 19.0474 -43.1427 19.2664C-43.9268 19.0215 -45.5194 18.8646 -47.908 18.8037C-50.2965 18.7363 -53.4795 18.7856 -57.4453 18.9372C-67.7821 19.3429 -78.1202 19.7485 -88.4584 20.1555C-109.061 20.9512 -129.813 21.8739 -149.831 22.1344C-150.762 22.1461 -152.107 22.2252 -153.114 22.2926C-154.148 22.3612 -155.727 22.4753 -155.802 22.531C-156 22.6775 -156.276 22.9133 -155.19 22.9211C-137.241 23.0559 -115.096 21.9297 -95.8623 21.7482C-87.6677 21.6705 -77.7275 21.2324 -68.7021 20.6868C-62.4192 20.5015 -56.1479 20.3175 -49.8844 20.1334C-43.6195 19.9857 -37.3638 19.8366 -31.1133 19.6889C-18.6121 19.4064 -6.13171 19.1238 6.34998 18.8426C18.8317 18.5588 31.3147 18.275 43.8236 17.9898C46.9508 17.916 50.0793 17.8408 53.2104 17.7669C56.3416 17.7034 59.474 17.6412 62.6104 17.5777C68.8816 17.4468 75.1608 17.3159 81.4541 17.1837C83.6132 17.1371 86.1377 17.1202 87.6682 17.1747C91.2582 17.303 94.97 17.2848 99.9893 17.1241C119.599 16.4956 138.935 16.099 158.072 15.8566C163.609 15.8022 169.375 15.7037 175.066 15.5922C191.685 15.2773 208.298 14.9624 224.917 14.6462C233.225 14.4855 241.536 14.3248 249.849 14.1641C254.005 14.0811 258.161 13.9982 262.319 13.9165C264.398 13.8699 266.476 13.8452 268.556 13.8102L274.795 13.7117C294.886 13.3903 314.989 13.0573 335.09 12.6737C355.19 12.2641 375.288 11.8546 395.368 11.445C402.361 11.2934 408.994 11.2921 415.825 11.239C434.828 11.0886 454.293 11.2377 472.399 10.0791C474.048 9.9689 476.288 9.90929 478.667 9.86782C481.045 9.82635 483.56 9.8095 485.758 9.80431C493.69 9.78487 501.896 9.77321 509.268 9.89503C532.791 10.2864 556.43 10.0298 580.162 9.32738C587.013 9.15372 593.215 9.05263 600.273 9.13039C605.722 9.1913 611.63 9.13687 617.321 9.09669C627.646 9.02411 637.961 8.89451 648.277 8.84138C658.73 8.78694 668.979 8.67808 678.939 8.39944C680.625 8.35667 682.312 8.31261 684 8.26984C685.687 8.24133 687.376 8.21411 689.064 8.1856C692.443 8.13894 695.827 8.10914 699.216 8.09877C705.995 8.07674 712.803 8.12987 719.66 8.27113C730.929 8.50441 742.108 8.54329 753.474 8.22447C757.63 8.10784 762.657 8.03396 766.979 8.07673C774.986 8.16097 782.989 8.13116 790.984 8.1182C798.979 8.12727 806.966 8.12468 814.942 8.20244C818.303 8.23484 822.055 8.27501 824.808 8.40202C828.816 8.58735 832.308 8.80119 836.867 8.5692C845.723 8.11949 856.201 8.16096 866.53 8.22576C880.314 8.31907 894.101 8.39683 907.827 8.634C916.915 8.77267 925.907 8.98132 934.924 9.16535C937.104 9.20941 939.562 9.35716 941.299 9.33124C955.204 9.12128 968.673 9.63968 982.302 9.79131C987.727 9.85222 993.143 9.93257 998.556 10.0168C1003.97 10.1231 1009.38 10.2294 1014.8 10.3356C1025.62 10.5352 1036.47 10.6817 1047.4 10.6415C1049.52 10.6337 1051.95 10.7244 1054.24 10.7581L1095.59 11.3724C1099.03 11.4268 1102.48 11.467 1105.92 11.5318L1116.26 11.7327C1123.15 11.8649 1130.04 11.9971 1136.93 12.1306C1156.46 12.4908 1176 12.8524 1195.53 13.214C1199.19 13.2827 1202.86 13.3514 1206.52 13.4214L1209.27 13.4719L1212.02 13.5341L1217.52 13.6611C1224.85 13.8283 1232.18 13.9968 1239.51 14.164C1254.17 14.5022 1268.83 14.8418 1283.48 15.18C1290.81 15.3576 1298.14 15.5351 1305.46 15.7127L1310.95 15.85C1312.78 15.8967 1314.61 15.9395 1316.44 15.9991C1320.1 16.1118 1323.76 16.2233 1327.42 16.336C1342.05 16.7922 1356.66 17.2743 1371.26 17.7966C1375.97 17.9651 1380.71 18.0247 1384.05 17.877L1384.05 17.8731Z" fill="#1F3832"/>
<path d="M142.671 9.21464C141.95 9.22371 140.839 9.29499 140.249 9.35072C139.978 9.37664 140.537 9.43755 140.72 9.48291C141.64 9.46736 142.815 9.47384 143.432 9.43107C145.738 9.27037 145.432 9.17965 142.671 9.21334L142.671 9.21464Z" fill="#1F3832"/>
</g>
<defs>
<clipPath id="clip0_5348_11789">
<rect width="1680.62" height="22.93" fill="white" transform="translate(1524.62 22.9299) rotate(180)"/>
</clipPath>
</defs>
</svg>
