<svg width="1440" height="17" viewBox="0 0 1440 17" fill="none" xmlns="http://www.w3.org/2000/svg">
<g opacity="0.3">
<path d="M33.6678 8.99546C33.2678 7.83497 32.1079 6.93237 30.878 7.0018C19.8387 7.57709 8.7895 8.16229 -2.24973 8.73758C-2.88969 8.76733 -3.28965 9.18392 -3.47964 9.70961C-4.22959 9.83856 -5.14952 10.1956 -4.89954 11.0784C-4.68955 11.8124 -3.64963 12.1595 -2.78969 12.2686C-2.23972 12.834 -1.47978 13.201 -0.689833 13.1514C7.95956 12.6952 16.609 12.2488 25.2584 11.7925C26.3183 11.8223 27.3782 11.8421 28.4281 11.8818C28.9781 11.9017 29.978 11.9116 30.558 11.5148C31.188 11.4851 31.8079 11.4454 32.4379 11.4156C33.6378 11.3561 34.0078 9.98734 33.6678 8.99546Z" fill="#C8E8C3"/>
<path d="M101.073 4.85936C96.5334 5.17676 91.9937 5.48424 87.454 5.80164C79.9645 5.93058 72.4851 6.45627 65.0356 7.34896C63.2457 7.46798 61.4558 7.59693 59.6559 7.71595C57.5561 7.86473 59.6359 12.2984 61.5558 12.1695C75.3548 11.2173 89.1639 10.2651 102.963 9.30295C105.063 9.15417 102.983 4.72049 101.063 4.84944L101.073 4.85936Z" fill="#C8E8C3"/>
<path d="M167.472 8.95505C167.952 7.83424 166.932 7.36806 166.013 7.24903C153.073 5.5926 140.024 5.2752 127.015 6.20756C126.065 6.277 124.555 7.05066 124.465 8.14172C124.465 8.18139 124.465 8.21115 124.465 8.25082C124.325 8.25082 124.185 8.25082 124.045 8.27066C123.486 8.30042 124.945 9.67912 125.045 9.76839C125.195 9.90725 125.395 10.1056 125.625 10.3139C125.655 10.8991 126.235 11.2364 126.865 11.2661C127.115 11.3951 127.345 11.4843 127.555 11.4645C140.664 10.8099 153.793 10.6908 166.902 11.1173C167.272 11.1273 166.752 10.5024 166.333 10.056C166.832 9.77831 167.262 9.4014 167.462 8.94513L167.472 8.95505Z" fill="#C8E8C3"/>
<path d="M230.615 5.35525C215.046 3.83768 199.318 4.45264 183.909 7.17038C181.939 7.51753 183.799 12.0405 185.389 11.7627C200.797 9.04502 216.526 8.43005 232.095 9.94762C233.865 10.1162 232.325 5.52387 230.615 5.35525Z" fill="#C8E8C3"/>
<path d="M301.027 8.59859C300.957 8.53908 300.877 8.46965 300.797 8.41014C300.807 7.30916 300.207 6.01972 299.117 5.63289C292.778 3.42101 286.118 3.96654 279.539 4.34346C272.549 4.74021 265.56 5.13695 258.57 5.5337C257.71 5.5833 257.4 6.43631 257.39 7.23973C256 7.38851 254.61 7.52737 253.23 7.70591C252.451 7.80509 254.16 9.22347 254.27 9.30282C254.99 9.82851 256.12 10.622 257.07 10.503C258.12 10.374 259.17 10.2649 260.22 10.1459C266.86 9.769 273.489 9.39209 280.129 9.01518C280.539 8.99534 280.959 8.96559 281.369 8.93583C286.588 8.91599 291.808 9.09453 297.017 9.48136C297.567 9.62022 298.107 9.77892 298.647 9.96738C299.417 10.2352 299.967 10.0963 300.317 9.74916C300.647 9.77892 300.977 9.79876 301.307 9.82851C302.347 9.9277 301.307 8.83664 301.027 8.59859Z" fill="#C8E8C3"/>
<path d="M376.254 6.56525C360.775 5.18655 345.216 4.82948 329.697 5.50395C329.357 5.51387 329.017 5.59322 328.707 5.72216C328.387 5.72216 328.057 5.72216 327.737 5.72216C327.097 5.72216 327.467 6.01972 327.867 6.25777C327.487 6.61485 327.227 7.09095 327.207 7.69599C327.187 8.94575 328.397 10.017 329.617 9.95746C345.146 9.29291 360.695 9.64006 376.174 11.0188C377.384 11.1279 378.634 10.0864 378.664 8.84656C378.684 7.46786 377.464 6.6942 376.254 6.58509V6.56525Z" fill="#C8E8C3"/>
<path d="M455.852 5.8906C439.473 4.56149 423.035 4.18458 406.616 4.7797C405.556 4.81938 404.636 5.67239 404.986 6.78329C405.356 7.9537 406.816 8.55874 407.936 8.51906C423.944 7.93386 439.983 8.28101 455.952 9.58037C456.962 9.65972 458.262 9.34232 458.282 8.08264C458.302 6.92215 456.862 5.96995 455.852 5.8906Z" fill="#C8E8C3"/>
<path d="M535.831 4.24422C518.702 3.76812 501.563 3.90698 484.454 4.6608C483.274 4.7104 482.244 5.9304 482.484 7.11073C482.754 8.45968 484.124 8.97545 485.324 8.92586C502.003 8.20179 518.702 8.06293 535.391 8.52911C536.571 8.55887 537.9 7.9935 538.04 6.64455C538.17 5.42455 537.01 4.28389 535.831 4.24422Z" fill="#C8E8C3"/>
<path d="M614.739 5.12713L610.779 5.23623C610.779 5.23623 610.789 5.23623 610.799 5.23623C611.519 4.75022 611.459 4.29395 610.529 4.28404C608.279 4.25428 606.03 4.25428 603.78 4.28404C597.45 4.2642 591.111 4.27412 584.781 4.31379C581.021 4.29395 577.262 4.33363 573.502 4.41298C572.062 4.43282 570.632 4.43282 569.192 4.45265C568.092 4.47249 566.792 4.79981 565.872 5.43461C565.512 5.68258 565.352 5.93055 565.402 6.10908C564.743 6.29754 564.253 6.84307 564.643 7.57705C564.713 7.706 564.793 7.8151 564.882 7.91429C564.852 8.10275 565.022 8.23169 565.332 8.28128C566.062 8.74746 567.082 8.89625 567.822 8.91608C582.621 9.33267 597.43 9.75918 612.229 10.1758C613.139 10.2055 614.069 9.57072 613.579 8.62844C613.339 8.1821 612.899 7.87462 612.389 7.66632C613.239 7.59689 614.289 7.31917 614.549 6.65461C614.589 6.53559 614.609 6.4364 614.599 6.33721C614.739 6.25786 614.889 6.18843 615.019 6.09916C615.709 5.62306 615.709 5.11721 614.749 5.14697L614.739 5.12713Z" fill="#C8E8C3"/>
<path d="M686.758 9.9273C686.358 8.96519 684.788 8.31055 683.858 8.19153C669.299 6.30697 654.6 5.66225 639.931 6.27721C639.181 6.24745 638.441 6.20778 637.692 6.17802C636.642 6.12843 637.252 7.24925 637.612 7.70551C638.221 8.45933 639.391 9.51072 640.431 9.56031C654.92 10.2149 669.409 10.8795 683.898 11.5341C684.458 11.5639 684.538 11.2564 684.448 10.8993C684.738 10.939 685.038 10.9688 685.328 11.0084C686.078 11.1076 687.168 10.9489 686.748 9.93722L686.758 9.9273Z" fill="#C8E8C3"/>
<path d="M735.574 7.93342C735.224 6.67375 733.854 6.04887 732.664 6.10838C722.325 6.58448 711.976 7.06058 701.636 7.53667C700.496 7.58627 699.576 8.67733 699.896 9.8279C700.246 11.0876 701.616 11.7125 702.806 11.6529C713.145 11.1768 723.495 10.7007 733.834 10.2247C734.974 10.1751 735.894 9.084 735.574 7.93342Z" fill="#C8E8C3"/>
<path d="M803.94 9.14367C788.081 8.33034 772.222 7.50708 756.353 6.69375C755.133 6.63424 753.803 7.37814 753.623 8.69733C753.453 9.95701 754.523 11.058 755.733 11.1175C771.592 11.9308 787.451 12.7541 803.32 13.5674C804.54 13.6269 805.87 12.883 806.05 11.5638C806.22 10.3042 805.15 9.20319 803.94 9.14367Z" fill="#C8E8C3"/>
<path d="M854.853 8.41996C854.943 7.12061 853.613 6.71394 852.603 6.6941C841.564 6.57508 830.535 7.30906 819.606 8.88614C818.756 8.9159 817.896 8.95557 817.046 8.98533C816.706 8.99525 816.706 9.30273 816.826 9.66972C816.346 10.007 815.986 10.4731 815.946 11.1079C815.856 12.2783 817.176 12.9826 818.196 12.8338C818.426 12.7941 818.666 12.7743 818.896 12.7346C819.136 12.9231 819.376 13.0421 819.596 13.0322C830.975 12.5858 842.354 12.1395 853.733 11.6931C854.343 11.6733 853.873 10.6913 853.563 10.1458C854.243 9.77883 854.813 9.15395 854.863 8.41996H854.853Z" fill="#C8E8C3"/>
<path d="M918.613 5.02769C918.213 3.8672 917.053 2.9646 915.823 3.03403C904.784 3.60931 893.735 4.19452 882.696 4.7698C882.056 4.79956 881.656 5.21615 881.466 5.74184C880.716 5.87078 879.796 6.22786 880.046 7.11062C880.256 7.84461 881.296 8.19177 882.156 8.30087C882.706 8.86624 883.466 9.23323 884.255 9.18364C892.905 8.72738 901.554 8.28103 910.204 7.82477C911.264 7.85453 912.324 7.87437 913.373 7.91404C913.923 7.93388 914.923 7.9438 915.503 7.54705C916.133 7.51729 916.753 7.47762 917.383 7.44786C918.583 7.38835 918.953 6.01956 918.613 5.02769Z" fill="#C8E8C3"/>
<path d="M986.018 0.891584C981.479 1.20898 976.939 1.51646 972.399 1.83386C964.91 1.96281 957.43 2.4885 949.981 3.38119C948.191 3.50021 946.401 3.62915 944.601 3.74818C942.501 3.89696 944.581 8.33063 946.501 8.20169C960.3 7.24949 974.109 6.29729 987.908 5.33518C990.008 5.18639 987.928 0.752721 986.008 0.881665L986.018 0.891584Z" fill="#C8E8C3"/>
<path d="M1052.41 4.98826C1052.89 3.86744 1051.87 3.40126 1050.95 3.28223C1038.01 1.62581 1024.96 1.30841 1011.95 2.24077C1011 2.3102 1009.49 3.08386 1009.4 4.17492C1009.4 4.2146 1009.4 4.24435 1009.4 4.28403C1009.26 4.28403 1009.12 4.28403 1008.98 4.30386C1008.42 4.33362 1009.88 5.71232 1009.98 5.80159C1010.13 5.94045 1010.33 6.13883 1010.56 6.34712C1010.59 6.93233 1011.17 7.26956 1011.8 7.29932C1012.05 7.42826 1012.28 7.51753 1012.49 7.49769C1025.6 6.84306 1038.73 6.72403 1051.84 7.15054C1052.21 7.16046 1051.69 6.53558 1051.27 6.08924C1051.77 5.81151 1052.2 5.4346 1052.4 4.97834L1052.41 4.98826Z" fill="#C8E8C3"/>
<path d="M1115.56 1.38747C1099.99 -0.130092 1084.26 0.484869 1068.85 3.2026C1066.88 3.54976 1068.74 8.0727 1070.33 7.79497C1085.74 5.07724 1101.47 4.46228 1117.04 5.97985C1118.81 6.14847 1117.27 1.55609 1115.56 1.38747Z" fill="#C8E8C3"/>
<path d="M1185.96 4.63082C1185.89 4.57131 1185.81 4.50187 1185.73 4.44236C1185.74 3.34138 1185.14 2.05195 1184.05 1.66512C1177.72 -0.546759 1171.06 -0.00122905 1164.48 0.375683C1157.49 0.772432 1150.5 1.16918 1143.51 1.56593C1142.65 1.61552 1142.34 2.46853 1142.33 3.27195C1140.94 3.42073 1139.55 3.5596 1138.17 3.73813C1137.39 3.83732 1139.1 5.2557 1139.21 5.33505C1139.93 5.86074 1141.06 6.65424 1142.01 6.53521C1143.06 6.40627 1144.11 6.29717 1145.16 6.17814C1151.8 5.80123 1158.43 5.42432 1165.07 5.04741C1165.48 5.02757 1165.9 4.99781 1166.31 4.96806C1171.53 4.94822 1176.75 5.12675 1181.95 5.51359C1182.5 5.65245 1183.04 5.81115 1183.58 5.9996C1184.35 6.26741 1184.9 6.12855 1185.25 5.78139C1185.58 5.81115 1185.91 5.83098 1186.24 5.86074C1187.28 5.95993 1186.24 4.86887 1185.96 4.63082Z" fill="#C8E8C3"/>
<path d="M1261.2 2.59748C1245.72 1.21878 1230.16 0.861703 1214.64 1.53618C1214.3 1.5461 1213.96 1.62545 1213.65 1.75439C1213.33 1.75439 1213 1.75439 1212.68 1.75439C1212.04 1.75439 1212.41 2.05195 1212.81 2.29C1212.43 2.64707 1212.17 3.12317 1212.15 3.72822C1212.13 4.97798 1213.34 6.0492 1214.56 5.98969C1230.09 5.32513 1245.64 5.67229 1261.12 7.05099C1262.33 7.1601 1263.58 6.11863 1263.61 4.87879C1263.63 3.50009 1262.41 2.72642 1261.2 2.61732V2.59748Z" fill="#C8E8C3"/>
<path d="M1340.79 1.92283C1324.41 0.593717 1307.97 0.216805 1291.55 0.811929C1290.49 0.851604 1289.57 1.70461 1289.92 2.81551C1290.29 3.98592 1291.75 4.59097 1292.87 4.55129C1308.88 3.96609 1324.92 4.31324 1340.89 5.61259C1341.9 5.69194 1343.2 5.37454 1343.22 4.11487C1343.24 2.95437 1341.8 2.00218 1340.79 1.92283Z" fill="#C8E8C3"/>
<path d="M1420.77 0.276445C1403.64 -0.199654 1386.5 -0.0607922 1369.39 0.693031C1368.21 0.742625 1367.18 1.96263 1367.42 3.14296C1367.69 4.49191 1369.06 5.00768 1370.26 4.95809C1386.94 4.23402 1403.64 4.09516 1420.33 4.56134C1421.51 4.59109 1422.84 4.02572 1422.98 2.67678C1423.11 1.45677 1421.95 0.31612 1420.77 0.276445Z" fill="#C8E8C3"/>
</g>
</svg>
