<svg width="1440" height="17" viewBox="0 0 1440 17" fill="none" xmlns="http://www.w3.org/2000/svg">
<path d="M860.64 8.68712C859.42 7.52366 857.57 6.75137 855.9 6.65108C798.824 3.21086 741.635 0.914984 684.459 1.84775C628.103 2.76046 571.906 6.60188 515.63 9.52054C458.734 12.4793 401.738 13.6528 344.782 11.8675C288.186 10.0922 231.87 3.56285 175.284 1.77755C143.456 0.774567 111.648 2.01826 79.8503 3.52273C47.4925 5.05729 15.1448 6.62193 -17.213 8.16652C-18.8929 8.24675 -17.443 9.90167 -16.903 10.4232C-15.7931 11.4864 -13.7532 12.5395 -12.1633 12.4593C16.7247 11.0752 45.6127 9.69104 74.4907 8.30693C102.809 6.95291 131.147 5.52869 159.515 5.6691C216.181 5.94994 272.557 12.8805 329.123 15.3679C386.069 17.8653 443.125 17.3538 500.061 14.8062C556.298 12.2888 612.434 8.00604 668.72 6.57178C732.805 4.93693 796.954 7.08235 860.94 10.9438C862.679 11.0441 861.069 9.10837 860.63 8.68712H860.64Z" fill="#C8E8C3"/>
<path d="M1438.91 6.26956C1437.69 5.10611 1435.84 4.33382 1434.17 4.23352C1377.09 0.793303 1319.91 -0.500543 1262.73 0.432226C1206.38 1.34494 1150.18 5.18635 1093.9 8.10501C1037.01 11.0638 980.012 12.2373 923.056 10.452C866.459 8.67671 810.143 2.14732 753.557 0.362018C721.729 -0.64096 689.922 0.602735 658.124 2.1072C625.766 3.64176 593.418 5.2064 561.06 6.75099C559.381 6.83123 560.83 8.48614 561.37 9.00769C562.48 10.0708 564.52 11.124 566.11 11.0437C594.998 9.65962 623.886 8.27551 652.764 6.8914C681.082 5.53738 709.42 4.11316 737.788 4.25357C794.454 4.53441 850.831 11.465 907.397 13.9524C964.343 16.4498 1021.4 15.9383 1078.33 13.3907C1134.57 10.8732 1190.71 6.59052 1246.99 5.15626C1311.08 3.5214 1375.22 4.6648 1439.21 8.52626C1440.95 8.62656 1439.34 6.69081 1438.9 6.26956H1438.91Z" fill="#C8E8C3"/>
</svg>
