<svg width="1166" height="750" viewBox="0 0 1166 750" fill="none" xmlns="http://www.w3.org/2000/svg">
<g opacity="0.3" clip-path="url(#clip0_5348_11816)">
<path d="M13.5409 96.26C14.8209 95.95 14.7809 94.53 14.4909 93.54C11.2409 82.73 7.99094 71.94 4.74094 61.13L4.26094 58.54C4.20094 58.2 3.89094 58.24 3.55094 58.41C3.15094 57.97 2.63094 57.66 1.99094 57.7C0.810943 57.76 0.280943 59.23 0.590943 60.26L0.800943 60.97C0.650943 61.24 0.560943 61.51 0.610943 61.74C2.84094 73.46 6.03094 84.96 10.0409 96.15C10.2609 96.75 11.0409 95.99 11.4709 95.51C12.0409 96.07 12.8309 96.43 13.5409 96.26Z" fill="white" stroke="white" stroke-miterlimit="10"/>
<path d="M45.5804 152.91C46.3004 151.9 46.3504 150.44 45.6004 149.45C42.2204 145.02 39.0004 140.46 35.9504 135.78C32.9404 131.07 30.0804 126.26 27.4104 121.33C27.1104 120.75 26.5604 120.56 26.0104 120.61C25.5704 119.97 24.8504 119.27 24.1604 119.87C23.5804 120.37 23.7104 121.49 23.9704 122.34C23.6804 123.1 23.7004 123.96 24.1004 124.67C28.4104 132.53 33.1804 140.12 38.4104 147.36L40.1504 150.13C40.4504 150.62 41.0204 151.47 41.6804 151.74C42.0604 152.26 42.4604 152.77 42.8604 153.27C43.6304 154.24 44.9804 153.75 45.5904 152.9L45.5804 152.91Z" fill="white" stroke="white" stroke-miterlimit="10"/>
<path d="M96.3315 198.16C92.4415 195.75 88.6415 193.18 84.9115 190.51C78.9815 185.82 73.1215 181.08 67.2115 176.3L65.1715 174.48L63.1915 172.6C61.6415 171.13 59.7615 175.7 61.2215 177.09C66.4915 181.96 71.9715 186.56 77.6415 190.89C83.3615 195.16 89.2215 199.2 95.2715 202.93C97.0915 204.07 97.9615 199.18 96.3415 198.15L96.3315 198.16Z" fill="white" stroke="white" stroke-miterlimit="10"/>
<path d="M154.02 233.43C154.88 232.55 154.07 231.73 153.24 231.27C141.45 224.97 129.63 219.14 117.65 213.48C116.77 213.09 115.07 212.95 114.43 213.86C114.41 213.89 114.4 213.93 114.38 213.96L114 213.76C113.49 213.49 114.08 215.46 114.12 215.59C114.18 215.78 114.27 216.06 114.36 216.37C114.09 216.89 114.44 217.51 115 217.84C115.16 218.08 115.33 218.27 115.53 218.36C127.73 224.43 140.12 230.01 152.71 235.25C153.06 235.4 152.78 234.62 152.54 234.04C153.12 233.97 153.67 233.78 154.02 233.42V233.43Z" fill="white" stroke="white" stroke-miterlimit="10"/>
<path d="M217.601 246.6C202.121 242.36 186.501 239.41 170.601 237.22C168.571 236.93 169.001 241.86 170.671 242.11C186.811 244.24 202.651 247.21 218.321 251.42C220.111 251.9 219.291 247.06 217.601 246.6Z" fill="white" stroke="white" stroke-miterlimit="10"/>
<path d="M289.733 254.65C289.653 254.6 289.563 254.54 289.473 254.48C289.383 253.37 288.663 252.13 287.513 251.84C285.843 251.42 284.193 251.19 282.533 251.07C280.873 250.85 279.203 250.76 277.533 250.75C275.863 250.75 274.193 250.81 272.523 250.92C271.683 250.96 270.853 251.07 270.013 251.07L267.503 251.1L262.163 251.16C260.383 251.16 258.603 251.25 256.803 251.14L246.013 250.74C245.133 250.69 244.723 251.5 244.613 252.31C243.173 252.29 241.733 252.27 240.293 252.28C239.483 252.28 241.063 253.91 241.173 254C241.853 254.61 242.933 255.55 243.923 255.54C245.023 255.54 246.113 255.57 247.213 255.54L257.553 255.92C261.023 255.95 264.503 255.87 267.963 255.84C268.393 255.84 268.823 255.83 269.263 255.82C270.623 255.92 271.983 255.83 273.343 255.83H277.433C280.163 255.83 282.903 256.02 285.623 255.9C286.203 255.99 286.783 256.1 287.363 256.24C288.193 256.44 288.753 256.25 289.083 255.87H290.123C291.213 255.87 290.033 254.87 289.713 254.65H289.733Z" fill="white" stroke="white" stroke-miterlimit="10"/>
<path d="M364.601 233.06C349.231 237.85 333.971 242.62 318.551 246.88C318.211 246.96 317.891 247.11 317.601 247.3L316.621 247.49C315.971 247.62 316.411 247.84 316.871 247.99C316.561 248.42 316.401 248.95 316.511 249.54C316.751 250.78 318.231 251.57 319.471 251.26C335.181 246.94 350.661 242.09 366.211 237.24C367.431 236.87 368.251 235.41 367.791 234.24C367.281 232.95 365.801 232.7 364.601 233.06Z" fill="white" stroke="white" stroke-miterlimit="10"/>
<path d="M422.898 200.21C422.338 199.03 420.938 199.35 420.028 199.85L412.628 204.07C410.178 205.49 407.748 206.97 405.348 208.48C402.958 210.01 400.528 211.46 398.158 213.03C395.768 214.57 393.448 216.21 391.078 217.79L388.748 219.02C388.438 219.18 388.578 219.46 388.838 219.74C388.538 220.26 388.408 220.84 388.648 221.44C389.078 222.54 390.618 222.59 391.508 221.99L392.128 221.58C392.428 221.64 392.708 221.65 392.918 221.54C395.538 220.16 398.078 218.66 400.668 217.22C403.228 215.75 405.848 214.36 408.368 212.82C413.438 209.78 418.548 206.83 423.518 203.66C424.058 203.32 423.148 202.71 422.598 202.39C423.028 201.72 423.218 200.88 422.908 200.21H422.898Z" fill="white" stroke="white" stroke-miterlimit="10"/>
<path d="M477.009 162.74C476.019 161.99 474.529 161.88 473.499 162.62C468.889 165.95 464.289 169.32 459.629 172.59L452.659 177.53L445.639 182.38C445.089 182.76 444.959 183.33 445.069 183.88C444.479 184.4 443.859 185.21 444.539 185.82C445.109 186.34 446.209 186.07 447.019 185.7C447.799 185.89 448.659 185.79 449.329 185.33L454.849 181.52L460.319 177.64C463.969 175.06 467.619 172.47 471.229 169.84L474.029 168.13C474.519 167.84 475.389 167.28 475.669 166.62L477.239 165.48C478.249 164.75 477.809 163.39 476.979 162.75L477.009 162.74Z" fill="white" stroke="white" stroke-miterlimit="10"/>
<path d="M532.528 120.61L521.378 129.25C515.028 133.68 508.918 138.43 503.048 143.46L498.648 146.85C496.928 148.17 501.188 150.71 502.768 149.5L536.648 123.24C538.368 121.91 534.098 119.39 532.528 120.6V120.61Z" fill="white" stroke="white" stroke-miterlimit="10"/>
<path d="M592.208 86.48C592.028 85.25 590.878 85.42 590.018 85.83C577.808 91.56 566.278 98.65 555.578 106.86C554.798 107.46 553.918 108.97 554.448 109.94C554.468 109.98 554.498 110 554.518 110.03L554.168 110.28C553.698 110.62 555.728 110.96 555.858 110.98C556.058 111.01 556.348 111.06 556.658 111.11C556.998 111.58 557.698 111.53 558.258 111.21C558.538 111.18 558.788 111.12 558.968 110.99C569.878 102.96 581.208 95.51 592.868 88.66C593.198 88.47 592.408 88.22 591.808 88.07C592.098 87.56 592.268 87 592.198 86.5L592.208 86.48Z" fill="white" stroke="white" stroke-miterlimit="10"/>
<path d="M646.836 50.47C631.856 56.7 617.936 65.41 605.726 76.02C604.166 77.37 608.176 80.27 609.436 79.2C621.576 68.61 635.466 60.01 650.356 53.87C652.056 53.18 648.496 49.81 646.846 50.48L646.836 50.47Z" fill="white" stroke="white" stroke-miterlimit="10"/>
<path d="M714.509 23.8C714.419 23.77 714.318 23.73 714.218 23.69C713.858 22.64 712.849 21.61 711.649 21.61C708.189 21.69 704.899 22.53 701.669 23.65C700.059 24.21 698.469 24.86 696.889 25.54C695.349 26.29 693.799 27.03 692.259 27.78C688.999 29.39 685.708 30.93 682.478 32.59L672.839 37.66C672.049 38.07 672.119 38.99 672.449 39.73C671.199 40.44 669.989 41.24 668.779 42.02C668.099 42.46 670.299 42.98 670.439 43C671.329 43.16 672.709 43.35 673.559 42.85L676.348 41.18L685.419 36.41L694.629 31.91L695.779 31.34C697.019 30.82 698.249 30.28 699.509 29.82L703.299 28.48C705.839 27.61 708.389 26.79 710.949 26.02C711.519 25.96 712.099 25.9 712.679 25.89C713.519 25.89 713.998 25.58 714.218 25.13L715.209 24.88C716.249 24.63 714.879 23.94 714.519 23.8H714.509Z" fill="white" stroke="white" stroke-miterlimit="10"/>
<path d="M789.249 4.86998C787.259 4.88998 785.259 4.91998 783.259 4.96998L780.259 5.05999C779.259 5.08999 778.269 5.21999 777.269 5.29999C773.289 5.68999 769.289 6.09999 765.309 6.64999C761.359 7.34999 757.409 8.11999 753.479 8.94999C751.499 9.31998 749.579 9.92999 747.639 10.45L741.839 12.11C741.509 12.21 741.179 12.37 740.899 12.57L739.919 12.8C739.279 12.96 739.729 13.15 740.189 13.28C739.899 13.73 739.759 14.26 739.909 14.84C740.219 16.06 741.699 16.8 742.889 16.45L748.599 14.81L751.469 14.03C752.419 13.76 753.379 13.52 754.359 13.33C758.229 12.51 762.119 11.76 766.009 11.07C769.919 10.51 773.859 10.13 777.769 9.74999C778.749 9.66999 779.729 9.54999 780.709 9.50999L783.659 9.42999L789.549 9.33999C790.769 9.33999 791.949 8.15998 791.879 6.90998C791.799 5.51998 790.489 4.85998 789.249 4.86998Z" fill="white" stroke="white" stroke-miterlimit="10"/>
<path d="M855.87 4.89999C856.22 3.63999 854.94 2.94999 853.91 2.72999C852.5 2.43999 851.09 2.09999 849.67 1.89999L845.38 1.37999C842.52 1.05999 839.65 0.789986 836.78 0.579986C833.91 0.429986 831.02 0.529986 828.15 0.579986L823.85 0.729986L821.71 0.829986C821 0.889986 820.28 0.989986 819.57 1.06999L816.91 1.12999C816.56 1.12999 816.55 1.44999 816.66 1.80999C816.15 2.13999 815.77 2.59999 815.71 3.23999C815.6 4.41999 816.92 5.14999 817.96 5.00999L818.68 4.91999C818.91 5.10999 819.15 5.23999 819.38 5.23999L821.56 5.19999L823.73 5.27999L828.08 5.44999L832.43 5.61999C833.88 5.68999 835.34 5.68999 836.78 5.86999L845.45 6.73999C846.9 6.88999 848.35 7.00999 849.79 7.18999L854.09 7.89999C854.71 7.99999 854.42 6.93999 854.21 6.33999C854.97 6.11999 855.66 5.60999 855.86 4.89999H855.87Z" fill="white" stroke="white" stroke-miterlimit="10"/>
<path d="M919.521 23.17C919.661 21.94 918.971 20.6 917.771 20.1L909.731 16.73L901.501 13.84L897.391 12.4C896.021 11.93 894.671 11.4 893.251 11.04L884.871 8.66999C884.221 8.48999 883.691 8.74999 883.351 9.18999C882.571 9.05999 881.551 9.09999 881.531 10.03C881.521 10.81 882.431 11.48 883.231 11.87C883.591 12.6 884.221 13.19 885.001 13.41L891.451 15.23L893.061 15.68L894.641 16.23L897.801 17.34L904.131 19.55L907.301 20.66C908.361 21.02 909.371 21.5 910.411 21.92L913.331 23.42C913.841 23.69 914.761 24.14 915.471 24.04L917.271 24.79C918.421 25.27 919.381 24.2 919.501 23.16L919.521 23.17Z" fill="white" stroke="white" stroke-miterlimit="10"/>
<path d="M980.95 57.79L975.04 53.76L972.09 51.75C971.11 51.07 970.12 50.41 969.09 49.81C965.85 47.6 962.54 45.47 959.2 43.43C957.52 42.43 955.86 41.38 954.12 40.47C952.37 39.58 950.61 38.71 948.84 37.87L943.88 35.2C941.95 34.16 941.45 39.13 943.18 40.06C946.31 41.76 949.47 43.42 952.59 45.15L961.74 50.72C967.94 54.31 973.73 58.51 979.69 62.51C981.49 63.74 982.62 58.93 980.94 57.79H980.95Z" fill="white" stroke="white" stroke-miterlimit="10"/>
<path d="M1028.66 107.76C1029.83 107.34 1029.44 106.26 1028.87 105.5C1024.8 100.12 1020.46 94.91 1015.84 89.95C1011.04 85.17 1005.99 80.62 1000.76 76.31C999.989 75.69 998.259 75.26 997.459 76.01C997.429 76.04 997.419 76.07 997.389 76.1L997.049 75.83C996.589 75.47 996.799 77.5 996.819 77.63C996.839 77.83 996.869 78.12 996.899 78.43C996.529 78.88 996.759 79.53 997.219 79.98C997.309 80.25 997.439 80.48 997.599 80.62C1002.72 85.02 1007.78 89.51 1012.71 94.13C1017.46 98.94 1022.12 103.84 1026.66 108.83C1026.92 109.11 1027 108.3 1027.03 107.68C1027.59 107.86 1028.18 107.92 1028.66 107.75V107.76Z" fill="white" stroke="white" stroke-miterlimit="10"/>
<path d="M1073.48 155.43C1071.31 152.01 1069.02 148.66 1066.62 145.39C1065.42 143.76 1064.21 142.13 1062.93 140.55C1061.62 139 1060.29 137.47 1058.94 135.96C1056.23 132.94 1053.42 130.02 1050.51 127.19C1049.05 125.78 1047.6 124.38 1046.08 123.04C1044.53 121.73 1042.96 120.44 1041.37 119.18C1039.75 117.9 1037.61 122.35 1038.91 123.37C1040.48 124.63 1042.07 125.87 1043.57 127.22C1045.06 128.57 1046.52 129.95 1047.96 131.35C1050.84 134.16 1053.64 137.06 1056.33 140.06C1057.67 141.57 1059.02 143.06 1060.27 144.64C1061.51 146.23 1062.73 147.83 1063.92 149.46C1066.3 152.71 1068.57 156.04 1070.73 159.44C1071.71 160.99 1074.43 156.92 1073.47 155.42L1073.48 155.43Z" fill="white" stroke="white" stroke-miterlimit="10"/>
<path d="M1112.6 216.83C1112.61 216.73 1112.62 216.63 1112.63 216.53C1113.57 215.94 1114.33 214.71 1114.04 213.55C1113.19 210.2 1111.77 207.1 1109.94 204.23C1108.1 201.37 1105.98 198.67 1103.9 195.96L1097.29 187.33L1093.98 183.02L1090.55 178.8C1089.99 178.11 1089.1 178.35 1088.43 178.8C1087.47 177.72 1086.5 176.65 1085.52 175.6C1084.97 175.01 1084.84 177.27 1084.84 177.41C1084.84 178.32 1084.88 179.73 1085.55 180.45L1087.75 182.87C1089.95 185.5 1092 188.23 1094.09 190.95L1100.34 199.1L1101.12 200.11C1102.64 202.33 1104.13 204.57 1105.57 206.84C1107.03 209.1 1108.3 211.48 1109.61 213.83C1109.79 214.38 1109.96 214.94 1110.11 215.51C1110.31 216.33 1110.73 216.72 1111.22 216.83L1111.7 217.73C1112.19 218.68 1112.54 217.19 1112.59 216.81L1112.6 216.83Z" fill="white" stroke="white" stroke-miterlimit="10"/>
<path d="M1144.18 286.86C1141.13 271.16 1136.15 255.76 1129.56 241.11C1129.41 240.79 1129.21 240.5 1128.97 240.24L1128.6 239.31C1128.35 238.7 1128.22 239.16 1128.15 239.64C1127.66 239.41 1127.11 239.34 1126.55 239.56C1125.37 240.01 1124.85 241.57 1125.37 242.7C1131.91 257.22 1136.84 272.48 1139.85 288.02C1140.09 289.23 1141.46 290.17 1142.67 289.86C1144.01 289.51 1144.42 288.09 1144.18 286.87V286.86Z" fill="white" stroke="white" stroke-miterlimit="10"/>
<path d="M1160.24 351.68C1161.55 351.66 1161.83 350.24 1161.73 349.19C1160.71 337.74 1158.25 326.42 1154.37 315.66L1153.75 313.08C1153.67 312.74 1153.37 312.8 1153.03 313C1152.6 312.58 1152.07 312.32 1151.43 312.41C1150.27 312.57 1149.83 314.04 1150.19 315.03L1150.43 315.72C1150.29 316 1150.22 316.26 1150.27 316.48C1153.09 327.8 1155.28 339.27 1156.83 350.83C1156.92 351.45 1157.85 350.88 1158.36 350.51C1158.8 351.17 1159.49 351.7 1160.23 351.68H1160.24Z" fill="white" stroke="white" stroke-miterlimit="10"/>
<path d="M1162 417.9C1163.22 417.67 1164.29 416.59 1164.41 415.3C1165.45 403.69 1165.67 392.05 1165.18 380.47C1165.15 379.79 1164.73 379.37 1164.2 379.18C1164.07 378.4 1163.71 377.44 1162.83 377.7C1162.09 377.92 1161.74 379 1161.63 379.88C1161.06 380.44 1160.69 381.22 1160.73 382.03C1161 390.95 1161.05 399.91 1160.38 408.84C1160.22 409.92 1160.12 411.01 1159.91 412.09C1159.8 412.65 1159.65 413.67 1159.96 414.32L1159.78 416.26C1159.66 417.5 1160.97 418.09 1162 417.9Z" fill="white" stroke="white" stroke-miterlimit="10"/>
<path d="M1144.9 486.62L1147.57 479.9L1149.99 473.1C1152.85 465.72 1155.13 458.1 1156.44 450.33C1156.87 448.49 1157.31 446.66 1157.64 444.8C1158.06 442.64 1153.19 443.57 1152.82 445.5C1149.85 459.42 1145.59 473.15 1140.01 486.4C1139.12 488.39 1144.15 488.54 1144.91 486.63L1144.9 486.62Z" fill="white" stroke="white" stroke-miterlimit="10"/>
<path d="M1102.03 541.14C1102.52 542.28 1103.59 541.82 1104.32 541.21C1114.73 532.48 1123.48 521.66 1130.18 509.72C1130.69 508.86 1130.88 507.09 1129.99 506.42C1129.96 506.39 1129.92 506.39 1129.89 506.37L1130.11 505.99C1130.39 505.48 1128.42 506.02 1128.29 506.06C1128.1 506.11 1127.82 506.19 1127.51 506.27C1127 505.98 1126.38 506.29 1126 506.81C1125.75 506.95 1125.54 507.1 1125.43 507.29C1118.59 518.89 1110.33 529.71 1100.83 539.23C1100.56 539.5 1101.39 539.54 1102.01 539.53C1101.86 540.1 1101.84 540.68 1102.03 541.14Z" fill="white" stroke="white" stroke-miterlimit="10"/>
<path d="M1054.33 586.06C1061.52 582.23 1068.28 577.55 1074.51 572.25C1080.75 566.98 1086.38 560.97 1091.28 554.48C1092.52 552.82 1087.99 550.83 1087.01 552.14C1082.15 558.48 1076.63 564.39 1070.45 569.56C1064.28 574.72 1057.61 579.3 1050.51 583.05C1048.9 583.92 1052.76 586.92 1054.34 586.06H1054.33Z" fill="white" stroke="white" stroke-miterlimit="10"/>
<path d="M988.419 616.85C988.509 616.88 988.609 616.91 988.709 616.94C989.109 617.97 990.169 618.95 991.359 618.88C998.299 618.5 1004.46 615.13 1010.5 611.92C1016.88 608.41 1023.22 604.84 1029.38 600.96C1030.14 600.49 1030.01 599.58 1029.63 598.87C1030.83 598.07 1031.99 597.2 1033.15 596.35C1033.8 595.87 1031.57 595.5 1031.43 595.48C1030.53 595.38 1029.14 595.28 1028.34 595.84L1025.67 597.69C1019.89 601.29 1013.95 604.65 1007.96 607.92L1006.83 608.52C1001.98 610.8 996.989 612.8 991.899 614.48C991.319 614.56 990.749 614.62 990.169 614.66C989.339 614.71 988.879 615.05 988.669 615.51L987.699 615.82C986.679 616.13 988.069 616.75 988.429 616.87L988.419 616.85Z" fill="white" stroke="white" stroke-miterlimit="10"/>
<path d="M914.869 640.66C930.769 638.95 946.559 635.32 961.649 629.78C961.979 629.66 962.289 629.48 962.559 629.26L963.519 628.96C964.149 628.76 963.689 628.59 963.229 628.49C963.499 628.02 963.599 627.48 963.429 626.9C963.059 625.69 961.539 625.05 960.379 625.48C945.459 630.97 929.829 634.56 914.099 636.24C912.879 636.39 911.809 637.64 912.019 638.87C912.249 640.23 913.639 640.79 914.869 640.65V640.66Z" fill="white" stroke="white" stroke-miterlimit="10"/>
<path d="M848.71 648.67C848.54 649.98 849.9 650.44 850.95 650.5C862.4 651.15 874 650.46 885.21 648.03L887.85 647.69C888.2 647.65 888.17 647.34 888.02 646.98C888.49 646.6 888.81 646.1 888.8 645.46C888.77 644.28 887.38 643.69 886.36 643.93L885.65 644.09C885.4 643.92 885.15 643.82 884.92 643.85C873.41 645.16 861.72 645.54 850.04 645.42C849.41 645.42 849.84 646.42 850.14 646.98C849.42 647.32 848.8 647.93 848.71 648.66V648.67Z" fill="white" stroke="white" stroke-miterlimit="10"/>
<path d="M782.742 644.56C782.962 645.78 784.002 646.87 785.272 647.01C796.692 648.21 808.142 649.22 819.622 649.93C820.292 649.97 820.752 649.6 821.002 649.09C821.792 649.04 822.782 648.78 822.612 647.87C822.472 647.11 821.442 646.65 820.572 646.45C820.072 645.82 819.332 645.39 818.522 645.33C809.602 644.73 800.682 644.05 791.782 643.12L788.552 642.54C787.992 642.43 786.972 642.28 786.322 642.58L784.392 642.36C783.152 642.22 782.552 643.52 782.742 644.56Z" fill="white" stroke="white" stroke-miterlimit="10"/>
<path d="M713.382 635.43L727.382 637.46C731.192 638.18 735.032 638.8 738.872 639.32C742.722 639.82 746.592 640.21 750.452 640.51L755.992 641.17C758.152 641.43 756.872 636.63 754.902 636.4C740.722 634.69 726.562 632.73 712.422 630.62C710.272 630.3 711.402 635.13 713.372 635.42L713.382 635.43Z" fill="white" stroke="white" stroke-miterlimit="10"/>
<path d="M647.481 615.76C646.731 616.74 647.641 617.45 648.531 617.79C661.111 622.6 674.171 626.09 687.491 628.2C688.461 628.36 690.161 627.95 690.501 626.9C690.511 626.86 690.501 626.83 690.521 626.79L690.951 626.87C691.521 626.97 690.371 625.28 690.291 625.16C690.181 624.99 690.011 624.75 689.831 624.49C689.941 623.91 689.421 623.44 688.801 623.26C688.581 623.07 688.361 622.94 688.151 622.9C674.821 620.5 661.621 617.42 648.581 613.77C648.211 613.67 648.581 614.41 648.891 614.95C648.321 615.09 647.801 615.36 647.491 615.76H647.481Z" fill="white" stroke="white" stroke-miterlimit="10"/>
<path d="M583.359 603.21C598.539 608.73 614.449 612.18 630.559 613.4C632.609 613.55 631.87 608.66 630.21 608.54C614.11 607.31 598.219 603.86 583.039 598.34C581.309 597.71 581.689 602.6 583.349 603.2L583.359 603.21Z" fill="white" stroke="white" stroke-miterlimit="10"/>
<path d="M513.831 581.69C513.891 581.77 513.951 581.85 514.011 581.94C513.721 583.01 513.991 584.43 514.981 585.08C520.751 588.88 527.551 590.09 534.211 591.44L555.461 595.76C556.331 595.94 556.861 595.19 557.081 594.41C558.511 594.63 559.931 594.85 561.361 595.04C562.161 595.15 560.821 593.32 560.731 593.21C560.151 592.51 559.221 591.44 558.241 591.31L555.001 590.83L534.821 586.73C534.401 586.65 533.981 586.56 533.561 586.48C528.341 585.14 523.171 583.6 518.051 581.87C517.541 581.59 517.031 581.29 516.541 580.97C515.841 580.51 515.261 580.5 514.821 580.75L513.851 580.41C512.841 580.04 513.601 581.38 513.821 581.69H513.831Z" fill="white" stroke="white" stroke-miterlimit="10"/>
<path d="M437.98 564.62C453.19 569.74 468.67 574 484.37 577.31C484.71 577.38 485.07 577.4 485.42 577.36L486.39 577.62C487.03 577.79 486.73 577.4 486.39 577.07C486.86 576.82 487.25 576.42 487.41 575.83C487.75 574.62 486.8 573.26 485.57 573C469.86 569.68 454.36 565.42 439.12 560.29C437.93 559.89 436.42 560.6 436.1 561.81C435.75 563.15 436.79 564.22 437.98 564.62Z" fill="white" stroke="white" stroke-miterlimit="10"/>
<path d="M372.012 553.33C371.652 554.59 372.912 555.27 373.932 555.49C385.052 557.92 396.312 559.61 407.662 560.58L410.262 561.07C410.602 561.14 410.672 560.83 410.642 560.45C411.202 560.23 411.672 559.86 411.862 559.25C412.212 558.12 411.052 557.12 409.992 557.04L409.262 556.98C409.062 556.74 408.852 556.57 408.622 556.52C397.052 554.32 385.452 552.27 373.822 550.34C373.202 550.24 373.472 551.3 373.682 551.9C372.922 552.12 372.222 552.63 372.012 553.34V553.33Z" fill="white" stroke="white" stroke-miterlimit="10"/>
<path d="M306.702 545.94C306.982 547.15 308.042 548.19 309.302 548.28C320.582 549.06 331.872 550.22 343.162 551.58C343.822 551.66 344.292 551.33 344.572 550.84C345.352 550.84 346.352 550.66 346.252 549.75C346.172 548.98 345.172 548.45 344.322 548.18C343.862 547.51 343.152 547.03 342.342 546.93C333.452 545.87 324.552 544.93 315.642 544.21C314.562 544.02 313.482 543.87 312.402 543.7C311.842 543.61 310.812 543.48 310.172 543.81L308.232 543.68C306.992 543.59 306.452 544.92 306.692 545.95L306.702 545.94Z" fill="white" stroke="white" stroke-miterlimit="10"/>
<path d="M239.342 550.98C240.332 550.56 241.422 550.33 242.462 550C243.522 549.7 244.562 549.37 245.632 549.09C247.812 548.63 249.972 548.07 252.192 547.69C259.542 546.69 267.062 546.05 274.632 545.27C276.452 545.2 278.272 545.07 280.112 545.05C282.252 545.03 280.342 540.41 278.342 540.49C271.182 540.74 264.042 541.29 256.972 542.23C249.922 543.27 242.932 544.75 236.352 547.18C235.352 547.55 235.702 548.65 236.492 549.58C237.292 550.51 238.502 551.29 239.342 550.97V550.98Z" fill="white" stroke="white" stroke-miterlimit="10"/>
</g>
<defs>
<clipPath id="clip0_5348_11816">
<rect width="1165.94" height="749.87" fill="white"/>
</clipPath>
</defs>
</svg>
