<svg width="41" height="36" viewBox="0 0 41 36" fill="none" xmlns="http://www.w3.org/2000/svg">
<path d="M41 0C40.141 3.72245 39.2343 7.73877 38.2799 12.049C37.3255 16.3592 36.4665 20.5714 35.703 24.6857C34.9395 28.8 34.3191 32.5714 33.8419 36H20.2415L19.2394 34.3837C20.0984 30.9551 21.1959 27.2816 22.5321 23.3633C23.8683 19.3469 25.3476 15.3306 26.9701 11.3143C28.5926 7.29796 30.1674 3.52653 31.6945 0H41ZM21.4743 0C20.6153 3.72245 19.7086 7.73877 18.7542 12.049C17.7998 16.3592 16.9408 20.5714 16.1773 24.6857C15.4138 28.8 14.7934 32.5714 14.3162 36H0.858972L0 34.3837C0.858972 30.9551 1.95655 27.2816 3.29273 23.3633C4.6289 19.3469 6.06052 15.3306 7.58758 11.3143C9.21009 7.29796 10.7849 3.52653 12.3119 0H21.4743Z" fill="#016241"/>
</svg>
