<svg width="548" height="214" viewBox="0 0 548 214" fill="none" xmlns="http://www.w3.org/2000/svg">
<path d="M7.65681 67C7.82278 67.2977 8.18389 67.6739 8.23922 68.0904C8.45649 69.733 8.55808 71.3897 8.74115 73.0363C8.8357 73.8832 8.94233 74.7392 9.16664 75.557C9.52976 76.8747 10.26 77.3032 11.6391 77.2157C12.2849 77.1745 12.9497 77.1222 13.5754 77.2368C13.8782 77.2921 14.1135 77.7217 14.3791 77.9822C14.1025 78.2196 13.8581 78.5857 13.5422 78.6652C12.9658 78.811 12.3462 78.7808 11.7457 78.8332C9.70378 79.0132 8.82665 79.6811 8.51784 81.7532C8.16277 84.1331 8.02798 86.5452 7.80971 88.9452C7.75941 89.4945 7.79864 90.0537 7.7222 90.5979C7.65681 91.0606 7.42244 91.5666 6.87625 91.4338C6.58656 91.3634 6.26971 90.9228 6.18521 90.5929C6.05143 90.0688 6.11279 89.4965 6.07356 88.9452C5.90457 86.5412 5.79493 84.1291 5.5334 81.7351C5.34631 80.0261 5.25176 80.0493 3.59005 79.8602C2.7431 79.7636 1.89715 79.6389 1.06227 79.4709C0.568389 79.3713 0.0634399 79.1802 0.00509899 78.5606C-0.0542478 77.9319 0.414491 77.7005 0.88826 77.4933C0.979795 77.4531 1.07535 77.4179 1.17292 77.3937C3.79927 76.7238 5.03952 74.8982 5.45897 72.3382C5.69435 70.9028 6.01321 69.4795 6.32101 68.0572C6.44473 67.4848 6.73241 67.0231 7.65883 67H7.65681ZM7.13074 72.7023C6.61372 73.9727 6.34816 75.0068 5.80197 75.8608C5.23566 76.746 4.39676 77.4561 3.60011 78.3272C5.21253 78.4469 6.71632 78.7004 6.94968 80.7544C7.61155 79.7254 8.1678 78.8593 8.77133 77.9188C7.60652 76.5719 7.41339 74.8257 7.13074 72.7023Z" fill="white"/>
<path d="M246.218 10.2357C245.998 10.9771 245.568 11.3704 244.938 11.4911C244.549 11.5645 244.134 11.5555 243.737 11.5202C242.208 11.3824 241.202 12.1459 240.69 13.4727C240.279 14.5369 240.03 15.6785 239.842 16.8082C239.654 17.9428 239.631 19.1046 239.533 20.2543C239.508 20.554 239.558 20.9001 239.423 21.1395C239.272 21.408 238.955 21.741 238.7 21.748C238.464 21.7551 238.064 21.41 238 21.1535C237.831 20.4776 237.804 19.7664 237.722 19.0694C237.528 17.4258 237.383 15.7741 237.128 14.1406C236.882 12.5674 236.566 12.3441 234.948 12.2445C234.297 12.2042 233.627 12.2535 233.002 12.1047C232.631 12.0161 232.332 11.6228 232 11.3663C232.268 11.0445 232.507 10.6924 232.814 10.4138C232.987 10.2569 233.268 10.2156 233.504 10.1301C235.013 9.5779 235.881 8.46137 236.153 6.9254C236.425 5.39646 236.563 3.84339 236.794 2.3064C236.883 1.71595 236.984 1.10136 237.233 0.568247C237.591 -0.20125 238.486 -0.180125 238.865 0.576296C239.042 0.929359 239.107 1.33975 239.219 1.724C239.697 3.36056 240.182 4.99512 240.651 6.6347C241.134 8.32658 242.273 9.22383 243.99 9.44915C244.536 9.52056 245.092 9.57991 245.619 9.72979C245.855 9.79718 246.033 10.0728 246.219 10.2388L246.218 10.2357ZM238.68 13.882C239.167 13.0341 239.456 12.3853 239.876 11.8381C240.326 11.2527 240.898 10.7608 241.486 10.1573C239.304 8.88787 239.163 6.44358 238.178 4.23769C237.93 5.56746 237.845 6.67795 237.497 7.69791C237.138 8.75006 236.521 9.7147 235.983 10.785C237.607 11.0284 238.36 12.1228 238.68 13.882Z" fill="white"/>
<path d="M73.178 17.0509C73.0518 17.1814 72.9303 17.4041 72.7445 17.4816C72.2828 17.6759 71.803 17.8693 71.3115 17.9461C70.1553 18.1281 69.4286 18.7484 69.2953 19.8708C69.1064 21.4654 69.017 23.0715 68.8939 24.673C68.8673 25.0162 68.8939 25.364 68.8673 25.708C68.8391 26.0926 68.6423 26.4335 68.2237 26.3406C68.0026 26.2914 67.715 25.9544 67.6922 25.7248C67.5934 24.7345 67.5778 23.7356 67.5386 22.7399C67.4947 21.6289 67.5017 20.5142 67.4061 19.4079C67.3191 18.4029 67.1991 18.3369 66.1942 18.224C65.6501 18.1626 65.0975 18.1403 64.566 18.0244C64.3418 17.9753 63.9977 17.7265 64 17.5737C64.0047 17.3296 64.2219 17.0624 64.41 16.8582C64.5291 16.7285 64.7518 16.6786 64.9376 16.6225C66.3039 16.211 66.9969 15.2513 67.1059 13.9124C67.2117 12.6157 67.1968 11.3105 67.2564 10.01C67.2791 9.51554 67.2979 9.00653 67.4382 8.53898C67.508 8.30558 67.8498 7.99695 68.063 8.00002C68.2817 8.00386 68.6329 8.3171 68.6862 8.54819C68.9527 9.70517 69.1181 10.8837 69.3627 12.046C69.5681 13.0195 69.7868 13.9945 70.0863 14.9427C70.3904 15.9047 71.0191 16.5219 72.1636 16.4283C72.5924 16.393 73.0479 16.4068 73.1772 17.0517L73.178 17.0509ZM68.4651 14.1504C67.9893 15.1185 67.5143 16.0843 67.0651 16.9964C67.5213 17.3496 68.0505 17.7595 68.5945 18.181C69.0053 17.8332 69.4952 17.4187 69.9193 17.0594C69.4239 16.0674 68.9378 15.0962 68.4651 14.1504Z" fill="white"/>
<path d="M503 152.107C502.712 152.508 502.589 152.742 502.403 152.914C502.297 153.013 502.093 153.045 501.93 153.051C499.254 153.159 498.697 154.377 498.39 156.928C498.234 158.22 498.144 159.52 498.007 160.814C497.955 161.299 497.946 161.819 497.744 162.246C497.586 162.58 497.156 163.003 496.852 163C496.566 162.997 496.098 162.52 496.038 162.194C495.851 161.185 495.821 160.149 495.73 159.122C495.591 157.556 495.524 155.981 495.297 154.427C495.059 152.781 494.644 152.456 492.947 152.174C492.67 152.127 492.385 152.112 492.115 152.044C490.934 151.745 490.598 150.882 491.562 150.185C493.88 148.509 494.2 146.151 494.308 143.667C494.348 142.746 494.347 141.823 494.377 140.902C494.39 140.524 494.328 140.094 494.492 139.783C494.671 139.446 495.063 139.016 495.382 139C495.679 138.986 496.187 139.414 496.279 139.733C496.608 140.88 496.787 142.064 497.047 143.23C497.414 144.872 497.753 146.521 498.195 148.145C498.672 149.899 499.714 151.13 501.733 151.396C502.149 151.451 502.518 151.825 503 152.105V152.107ZM498.847 152.002C496.996 150.614 496.612 148.555 495.957 146.618C495.278 148.001 494.65 149.281 493.992 150.619C495.933 150.976 496.617 152.441 497.079 154.127C497.699 153.383 498.218 152.759 498.847 152.002Z" fill="white"/>
<path d="M16.5234 154C16.964 154.583 17.3151 154.878 17.4378 155.248C17.656 155.91 17.6993 156.627 17.8834 157.303C18.2244 158.558 18.5322 159.831 19.0069 161.037C19.5531 162.424 20.4896 163.424 22.1734 163.319C22.3666 163.307 22.6372 163.319 22.7458 163.437C22.961 163.671 23.1984 163.98 23.2115 164.268C23.2206 164.465 22.9017 164.763 22.6653 164.863C22.4078 164.973 22.0759 164.911 21.7761 164.916C20.0782 164.94 19.2443 165.598 19.0814 167.29C18.9275 168.884 18.9416 170.493 18.8862 172.097C18.8701 172.547 18.9556 173.024 18.8349 173.443C18.7424 173.766 18.4457 174.188 18.159 174.264C17.6218 174.407 17.3724 173.961 17.2969 173.467C17.1833 172.723 17.1088 171.973 16.9761 171.233C16.7286 169.852 16.5003 168.464 16.1734 167.101C15.8585 165.787 15.768 165.77 14.4463 165.704C13.9454 165.679 13.4283 165.699 12.9526 165.571C12.6116 165.478 12.172 165.236 12.0533 164.947C11.8491 164.453 12.2676 164.132 12.6981 163.917C12.7433 163.895 12.7866 163.869 12.8329 163.851C14.7631 163.105 15.2872 161.478 15.4381 159.641C15.5528 158.241 15.5668 156.832 15.7227 155.436C15.769 155.027 16.1472 154.655 16.5264 154H16.5234ZM17.0284 160.653C16.5546 161.775 16.0798 162.901 15.6453 163.932C16.3383 164.599 17.0284 165.263 17.6792 165.888C18.1429 165.248 18.6307 164.575 19.0774 163.958C18.3863 162.843 17.7134 161.757 17.0284 160.653Z" fill="white"/>
<path d="M541.249 204.456C540.345 204.396 539.647 204.435 539 204.273C538.605 204.175 538.071 203.808 538.005 203.481C537.947 203.198 538.393 202.607 538.735 202.485C540.64 201.806 541.141 200.296 541.262 198.533C541.351 197.23 541.396 195.925 541.479 194.622C541.502 194.259 541.496 193.849 541.668 193.554C541.822 193.289 542.186 193.034 542.482 193.001C542.689 192.978 543.075 193.301 543.143 193.535C543.328 194.184 543.394 194.867 543.495 195.537C543.721 197.035 543.894 198.542 544.173 200.029C544.473 201.624 545.184 202.233 546.806 202.475C547.062 202.513 547.345 202.487 547.57 202.589C548.09 202.823 548.15 203.548 547.688 203.876C547.525 203.992 547.305 204.092 547.111 204.092C545.413 204.097 544.905 205.217 544.693 206.614C544.412 208.472 544.14 210.331 543.87 212.191C543.825 212.501 543.839 212.82 543.776 213.126C543.675 213.616 543.419 214.109 542.866 213.979C542.568 213.909 542.191 213.439 542.156 213.117C541.94 211.144 541.829 209.161 541.646 207.185C541.565 206.313 541.396 205.447 541.25 204.457L541.249 204.456ZM544.241 203.343C543.662 202.497 543.129 201.718 542.558 200.884C542.199 201.506 541.868 202.078 541.627 202.497C542.22 203.448 542.757 204.31 543.304 205.186C543.619 204.566 543.921 203.973 544.241 203.343Z" fill="white"/>
<path d="M260.103 20.5469C259.102 20.3386 258.373 20.9945 257.823 22.0144C257.015 23.5192 256.763 25.1337 256.806 26.8135C256.819 27.2641 256.886 27.7168 256.864 28.1654C256.841 28.6311 256.705 29.1632 256.124 29.0787C255.829 29.0355 255.507 28.6522 255.346 28.3444C255.195 28.0537 255.247 27.6594 255.197 27.3124C254.904 25.2785 254.664 23.2356 254.294 21.2158C254.044 19.8528 253.896 19.8116 252.526 19.6174C252.129 19.5611 251.698 19.5611 251.353 19.3921C251.087 19.2624 250.818 18.9274 250.768 18.6458C250.734 18.4536 251.051 18.0181 251.25 17.9919C253.331 17.7173 253.457 16.1039 253.699 14.5448C253.807 13.8517 253.926 13.1557 254.11 12.4807C254.266 11.9084 254.441 11.2274 255.242 11.3159C255.927 11.3914 256.019 11.9868 256.113 12.5521C256.295 13.6395 256.442 14.7389 256.724 15.8021C256.912 16.5143 257.222 17.2295 257.631 17.84C258.15 18.6156 258.886 19.1085 259.933 18.9415C260.365 18.8721 260.861 18.8982 261.266 19.0501C261.575 19.1668 261.98 19.5339 261.998 19.8126C262.029 20.2873 261.644 20.6143 261.105 20.6112C260.854 20.6092 260.605 20.5821 260.104 20.5499L260.103 20.5469ZM256.106 21.8102C256.642 21.0035 257.039 20.405 257.301 20.0087C256.464 18.6608 255.739 17.493 255.001 16.3031C254.756 16.9358 254.498 17.6017 254.212 18.341C255.521 19.0159 255.604 20.3517 256.106 21.8102Z" fill="white"/>
</svg>
