<svg width="202" height="187" viewBox="0 0 202 187" fill="none" xmlns="http://www.w3.org/2000/svg">
<path d="M7.65681 70C7.82278 70.2977 8.18389 70.6739 8.23922 71.0904C8.45649 72.733 8.55808 74.3897 8.74115 76.0363C8.8357 76.8832 8.94233 77.7392 9.16664 78.557C9.52976 79.8747 10.26 80.3032 11.6391 80.2157C12.2849 80.1745 12.9497 80.1222 13.5754 80.2368C13.8782 80.2921 14.1135 80.7217 14.3791 80.9822C14.1025 81.2196 13.8581 81.5857 13.5422 81.6652C12.9658 81.811 12.3462 81.7808 11.7457 81.8332C9.70378 82.0132 8.82665 82.6811 8.51784 84.7532C8.16277 87.1331 8.02798 89.5452 7.80971 91.9452C7.75941 92.4945 7.79864 93.0537 7.7222 93.5979C7.65681 94.0606 7.42244 94.5666 6.87625 94.4338C6.58656 94.3634 6.26971 93.9228 6.18521 93.5929C6.05143 93.0688 6.11279 92.4965 6.07356 91.9452C5.90457 89.5412 5.79493 87.1291 5.5334 84.7351C5.34631 83.0261 5.25176 83.0493 3.59005 82.8602C2.7431 82.7636 1.89715 82.6389 1.06227 82.4709C0.568389 82.3713 0.0634399 82.1802 0.00509899 81.5606C-0.0542478 80.9319 0.414491 80.7005 0.88826 80.4933C0.979795 80.4531 1.07535 80.4179 1.17292 80.3937C3.79927 79.7238 5.03952 77.8982 5.45897 75.3382C5.69435 73.9028 6.01321 72.4795 6.32101 71.0572C6.44473 70.4848 6.73241 70.0231 7.65883 70H7.65681ZM7.13074 75.7023C6.61372 76.9727 6.34816 78.0068 5.80197 78.8608C5.23566 79.746 4.39676 80.4561 3.60011 81.3272C5.21253 81.4469 6.71632 81.7004 6.94968 83.7544C7.61155 82.7254 8.1678 81.8593 8.77133 80.9188C7.60652 79.5719 7.41339 77.8257 7.13074 75.7023Z" fill="white"/>
<path d="M85.2181 10.2357C84.9978 10.9771 84.5683 11.3704 83.9376 11.4911C83.5493 11.5645 83.1339 11.5555 82.7366 11.5202C81.2077 11.3824 80.2018 12.1459 79.6898 13.4727C79.2794 14.5369 79.0299 15.6785 78.8418 16.8082C78.6537 17.9428 78.6306 19.1046 78.533 20.2543C78.5079 20.554 78.5582 20.9001 78.4234 21.1395C78.2725 21.408 77.9546 21.741 77.7002 21.748C77.4638 21.7551 77.0644 21.41 77.0001 21.1535C76.8311 20.4776 76.8039 19.7664 76.7224 19.0694C76.5283 17.4258 76.3835 15.7741 76.128 14.1406C75.8815 12.5674 75.5657 12.3441 73.9482 12.2445C73.2974 12.2042 72.6265 12.2535 72.0019 12.1047C71.6307 12.0161 71.3319 11.6228 71 11.3663C71.2676 11.0445 71.507 10.6924 71.8138 10.4138C71.9868 10.2569 72.2684 10.2156 72.5038 10.1301C74.0126 9.5779 74.8807 8.46137 75.1533 6.9254C75.4249 5.39646 75.5627 3.84339 75.794 2.3064C75.8825 1.71595 75.9841 1.10136 76.2326 0.568247C76.5907 -0.20125 77.4859 -0.180125 77.8651 0.576296C78.0422 0.929359 78.1065 1.33975 78.2192 1.724C78.697 3.36056 79.1818 4.99512 79.6506 6.6347C80.1344 8.32658 81.273 9.22383 82.9901 9.44915C83.5363 9.52056 84.0915 9.57991 84.6186 9.72979C84.855 9.79718 85.033 10.0728 85.2191 10.2388L85.2181 10.2357ZM77.68 13.882C78.1669 13.0341 78.4556 12.3853 78.876 11.8381C79.3257 11.2527 79.898 10.7608 80.4864 10.1573C78.3037 8.88787 78.1629 6.44358 77.1781 4.23769C76.9297 5.56746 76.8452 6.67795 76.4971 7.69791C76.138 8.75006 75.5214 9.7147 74.9833 10.785C76.6068 11.0284 77.3602 12.1228 77.68 13.882Z" fill="white"/>
<path d="M27.178 19.0509C27.0518 19.1814 26.9303 19.4041 26.7445 19.4816C26.2828 19.6759 25.803 19.8693 25.3115 19.9461C24.1553 20.1281 23.4286 20.7484 23.2953 21.8708C23.1064 23.4654 23.017 25.0715 22.8939 26.673C22.8673 27.0162 22.8939 27.364 22.8673 27.708C22.8391 28.0926 22.6423 28.4335 22.2237 28.3406C22.0026 28.2914 21.715 27.9544 21.6922 27.7248C21.5934 26.7345 21.5778 25.7356 21.5386 24.7399C21.4947 23.6289 21.5017 22.5142 21.4061 21.4079C21.3191 20.4029 21.1991 20.3369 20.1942 20.224C19.6501 20.1626 19.0975 20.1403 18.566 20.0244C18.3418 19.9753 17.9977 19.7265 18 19.5737C18.0047 19.3296 18.2219 19.0624 18.41 18.8582C18.5291 18.7285 18.7518 18.6786 18.9376 18.6225C20.3039 18.211 20.9969 17.2513 21.1059 15.9124C21.2117 14.6157 21.1968 13.3105 21.2564 12.01C21.2791 11.5155 21.2979 11.0065 21.4382 10.539C21.508 10.3056 21.8498 9.99695 22.063 10C22.2817 10.0039 22.6329 10.3171 22.6862 10.5482C22.9527 11.7052 23.1181 12.8837 23.3627 14.046C23.5681 15.0195 23.7868 15.9945 24.0863 16.9427C24.3904 17.9047 25.0191 18.5219 26.1636 18.4283C26.5924 18.393 27.0479 18.4068 27.1772 19.0517L27.178 19.0509ZM22.4651 16.1504C21.9893 17.1185 21.5143 18.0843 21.0651 18.9964C21.5213 19.3496 22.0505 19.7595 22.5945 20.181C23.0053 19.8332 23.4952 19.4187 23.9193 19.0594C23.4239 18.0674 22.9378 17.0962 22.4651 16.1504Z" fill="white"/>
<path d="M202 140.107C201.712 140.508 201.589 140.742 201.403 140.914C201.297 141.013 201.093 141.045 200.93 141.051C198.254 141.159 197.697 142.377 197.39 144.928C197.234 146.22 197.144 147.52 197.007 148.814C196.955 149.299 196.946 149.819 196.744 150.246C196.586 150.58 196.156 151.003 195.852 151C195.566 150.997 195.098 150.52 195.038 150.194C194.851 149.185 194.821 148.149 194.73 147.122C194.591 145.556 194.524 143.981 194.297 142.427C194.059 140.781 193.644 140.456 191.947 140.174C191.67 140.127 191.385 140.112 191.115 140.044C189.934 139.745 189.598 138.882 190.562 138.185C192.88 136.509 193.2 134.151 193.308 131.667C193.348 130.746 193.347 129.823 193.377 128.902C193.39 128.524 193.328 128.094 193.492 127.783C193.671 127.446 194.063 127.016 194.382 127C194.679 126.986 195.187 127.414 195.279 127.733C195.608 128.88 195.787 130.064 196.047 131.23C196.414 132.872 196.753 134.521 197.195 136.145C197.672 137.899 198.714 139.13 200.733 139.396C201.149 139.451 201.518 139.825 202 140.105V140.107ZM197.847 140.002C195.996 138.614 195.612 136.555 194.957 134.618C194.278 136.001 193.65 137.281 192.992 138.619C194.933 138.976 195.617 140.441 196.079 142.127C196.699 141.383 197.218 140.759 197.847 140.002Z" fill="white"/>
<path d="M18.5234 162C18.964 162.583 19.3151 162.878 19.4378 163.248C19.656 163.91 19.6993 164.627 19.8834 165.303C20.2244 166.558 20.5322 167.831 21.0069 169.037C21.5531 170.424 22.4896 171.424 24.1734 171.319C24.3666 171.307 24.6372 171.319 24.7458 171.437C24.961 171.671 25.1984 171.98 25.2115 172.268C25.2206 172.465 24.9017 172.763 24.6653 172.863C24.4078 172.973 24.0759 172.911 23.7761 172.916C22.0782 172.94 21.2443 173.598 21.0814 175.29C20.9275 176.884 20.9416 178.493 20.8862 180.097C20.8701 180.547 20.9556 181.024 20.8349 181.443C20.7424 181.766 20.4457 182.188 20.159 182.264C19.6218 182.407 19.3724 181.961 19.2969 181.467C19.1833 180.723 19.1088 179.973 18.9761 179.233C18.7286 177.852 18.5003 176.464 18.1734 175.101C17.8585 173.787 17.768 173.77 16.4463 173.704C15.9454 173.679 15.4283 173.699 14.9526 173.571C14.6116 173.478 14.172 173.236 14.0533 172.947C13.8491 172.453 14.2676 172.132 14.6981 171.917C14.7433 171.895 14.7866 171.869 14.8329 171.851C16.7631 171.105 17.2872 169.478 17.4381 167.641C17.5528 166.241 17.5668 164.832 17.7227 163.436C17.769 163.027 18.1472 162.655 18.5264 162H18.5234ZM19.0284 168.653C18.5546 169.775 18.0798 170.901 17.6453 171.932C18.3383 172.599 19.0284 173.263 19.6792 173.888C20.1429 173.248 20.6307 172.575 21.0774 171.958C20.3863 170.843 19.7134 169.757 19.0284 168.653Z" fill="white"/>
<path d="M162.249 177.456C161.345 177.396 160.647 177.435 160 177.273C159.605 177.175 159.071 176.808 159.005 176.481C158.947 176.198 159.393 175.607 159.735 175.485C161.64 174.806 162.141 173.296 162.262 171.533C162.351 170.23 162.396 168.925 162.479 167.622C162.502 167.259 162.496 166.849 162.668 166.554C162.822 166.289 163.186 166.034 163.482 166.001C163.689 165.978 164.075 166.301 164.143 166.535C164.328 167.184 164.394 167.867 164.495 168.537C164.721 170.035 164.894 171.542 165.173 173.029C165.473 174.624 166.184 175.233 167.806 175.475C168.062 175.513 168.345 175.487 168.57 175.589C169.09 175.823 169.15 176.548 168.688 176.876C168.525 176.992 168.305 177.092 168.111 177.092C166.413 177.097 165.905 178.217 165.693 179.614C165.412 181.472 165.14 183.331 164.87 185.191C164.825 185.501 164.839 185.82 164.776 186.126C164.675 186.616 164.419 187.109 163.866 186.979C163.568 186.909 163.191 186.439 163.156 186.117C162.94 184.144 162.829 182.161 162.646 180.185C162.565 179.313 162.396 178.447 162.25 177.457L162.249 177.456ZM165.241 176.343C164.662 175.497 164.129 174.718 163.558 173.884C163.199 174.506 162.868 175.078 162.627 175.497C163.22 176.448 163.757 177.31 164.304 178.186C164.619 177.566 164.921 176.973 165.241 176.343Z" fill="white"/>
<path d="M99.1027 20.5469C98.1019 20.3386 97.3726 20.9945 96.8234 22.0144C96.0147 23.5192 95.7632 25.1337 95.8065 26.8135C95.8185 27.2641 95.8859 27.7168 95.8638 28.1654C95.8407 28.6311 95.7049 29.1632 95.1245 29.0787C94.8288 29.0355 94.5069 28.6522 94.3459 28.3444C94.1951 28.0537 94.2474 27.6594 94.1971 27.3124C93.9044 25.2785 93.664 23.2356 93.2938 21.2158C93.0443 19.8528 92.8965 19.8116 91.5265 19.6174C91.1291 19.5611 90.6976 19.5611 90.3526 19.3921C90.0871 19.2624 89.8185 18.9274 89.7682 18.6458C89.734 18.4536 90.0508 18.0181 90.25 17.9919C92.3312 17.7173 92.4569 16.1039 92.6993 14.5448C92.8069 13.8517 92.9256 13.1557 93.1097 12.4807C93.2656 11.9084 93.4406 11.2274 94.2423 11.3159C94.9273 11.3914 95.0189 11.9868 95.1134 12.5521C95.2955 13.6395 95.4423 14.7389 95.724 15.8021C95.9121 16.5143 96.2219 17.2295 96.6313 17.84C97.1503 18.6156 97.8856 19.1085 98.9327 18.9415C99.3653 18.8721 99.8612 18.8982 100.266 19.0501C100.575 19.1668 100.98 19.5339 100.998 19.8126C101.029 20.2873 100.644 20.6143 100.105 20.6112C99.8541 20.6092 99.6047 20.5821 99.1037 20.5499L99.1027 20.5469ZM95.1064 21.8102C95.6415 21.0035 96.0388 20.405 96.3014 20.0087C95.4645 18.6608 94.7392 17.493 94.0009 16.3031C93.7565 16.9358 93.498 17.6017 93.2123 18.341C94.521 19.0159 94.6044 20.3517 95.1064 21.8102Z" fill="white"/>
</svg>
