<svg width="13" height="10" viewBox="0 0 13 10" fill="none" xmlns="http://www.w3.org/2000/svg">
<path d="M5.21281 9.01691C5.7673 8.58359 6.23472 8.05824 6.68326 7.51841C6.9463 7.31366 7.21411 7.11588 7.4832 6.92763C7.60546 6.84202 7.75027 6.75495 7.90168 6.66569C7.92184 6.76357 7.93339 6.8653 7.95667 6.96154C8.13356 7.69017 9.0103 7.64856 9.39102 7.14906C10.3482 5.89416 11.8082 5.10853 12.8096 3.88351C13.148 3.46961 13.0292 2.89643 12.5019 2.71752C11.2105 2.27961 9.89217 1.92602 8.5997 1.49049C8.2023 1.3565 7.90663 1.82722 8.03201 2.14543C7.90754 2.32727 7.83221 2.53477 7.78217 2.75327C6.51738 2.07926 5.3655 1.24211 4.10914 0.476091C3.54383 0.131482 2.79431 0.576175 2.79797 1.22855C2.80384 2.28364 2.85113 3.33745 2.90117 4.39108C2.61027 4.40721 2.3179 4.41417 2.02553 4.42151C1.88476 4.39786 1.74526 4.3788 1.61842 4.39419C1.42668 4.41729 1.23696 4.44937 1.04651 4.47796C0.889055 4.49519 0.732148 4.51646 0.575973 4.54689C-0.437876 4.71424 0.00315164 6.22264 0.997937 6.07655C1.65398 5.98013 2.31405 6.00359 2.97248 5.99626C3.00346 6.72856 3.02967 7.46085 3.03425 8.19407C3.03828 8.81711 3.58691 9.1181 4.08219 9.01875C4.39454 9.23706 4.87186 9.28344 5.21281 9.01691Z" fill="#1F3832"/>
</svg>
