<svg width="13" height="9" viewBox="0 0 13 9" fill="none" xmlns="http://www.w3.org/2000/svg">
<path d="M9.80063 8.54095C11.0964 8.21797 12.2763 7.31618 12.6967 5.99795C13.2839 4.15703 13.0275 2.29632 11.8483 1.13344C11.3246 0.338642 10.4421 -0.0469813 9.5543 0.0352046C9.54004 0.0364575 9.52647 0.0412179 9.51244 0.0427213C7.85371 -0.177527 6.02501 0.467682 4.82696 1.65838C4.20344 2.27828 3.82878 3.18508 3.80992 4.10391C3.48171 4.15628 3.15788 4.24448 2.82553 4.28006C2.20546 4.34621 1.57596 4.35648 0.953362 4.38204C-0.209268 4.31038 -0.411663 6.43368 0.925304 6.48855C1.81792 6.52514 2.99619 6.64591 3.95412 6.36503C4.13168 7.3698 4.78004 8.23225 5.9222 8.67024C7.11772 9.12853 8.61913 9.13053 9.80063 8.54095Z" fill="#1F3832"/>
</svg>
