<svg width="13" height="8" viewBox="0 0 13 8" fill="none" xmlns="http://www.w3.org/2000/svg">
<path d="M3.83732 7.16513C4.88062 6.12943 5.97794 5.19036 7.09395 4.23752C7.09997 4.70594 7.10377 5.17452 7.11597 5.64295C7.12896 6.13593 7.60356 6.33077 8.01321 6.15779C9.88849 5.36604 11.9166 4.21217 12.934 2.3757C13.0925 2.08945 12.9563 1.69643 12.6244 1.61406C10.9909 1.20963 9.38363 0.694953 7.80854 0.104236C7.52625 -0.00158355 7.31097 0.310964 7.3623 0.553651C7.1928 0.652183 7.0648 0.820099 7.06638 1.07625C7.06828 1.3286 7.06971 1.58095 7.07098 1.8333C5.60709 1.24971 4.18487 0.56157 2.69628 0.0315244C2.29169 -0.112314 1.86905 0.260114 1.86984 0.661212C1.87158 1.47878 1.93717 2.29079 2.03887 3.09869C1.95237 3.09363 1.86398 3.10218 1.76846 3.11739C1.7504 3.12024 1.73741 3.13022 1.7203 3.1345C1.37639 3.22463 1.00586 3.28388 0.654347 3.30431C-0.212483 3.35501 -0.22373 4.69248 0.654347 4.66064C1.04071 4.66618 1.80109 4.68218 2.24053 4.45486C2.37644 5.26023 2.53501 6.06242 2.69247 6.86304C2.79417 7.38104 3.49309 7.50698 3.83732 7.16513Z" fill="white"/>
</svg>
