<svg width="1440" height="506" viewBox="0 0 1440 506" fill="none" xmlns="http://www.w3.org/2000/svg">
<path d="M0 500.156C0.381836 496.719 5.03194 493.698 7.28931 491.441C15.9687 482.761 23.3101 473.546 31.0588 464.026C45.734 445.997 64.0839 431.527 79.0732 413.873C90.9515 399.883 103.53 386.524 117.421 374.495C152.059 344.499 186.747 314.056 223.75 287.023C244.359 271.967 261.026 258.237 287.849 251.369C314.672 244.5 331.399 251.429 349.095 256.281C381.763 265.238 414.522 278.535 448.451 281.873C474.195 284.405 499.755 286.23 525.623 286.23C555.61 286.23 583.42 287.007 612.144 276.802C644.231 265.403 675.323 253.221 704.766 235.839C731.338 220.152 755.44 202.284 780.907 184.972C812.011 163.83 839.977 138.356 872.42 119.131C893.234 106.797 914.761 95.0854 937.311 86.5666C972.182 73.3929 1014.19 79.4358 1050.77 79.4358C1080.33 79.4358 1109.79 80.8619 1139.35 80.8619C1160.13 80.8619 1180.68 78.0096 1201.39 78.0096C1212.69 78.0096 1224.87 74.1081 1235.78 71.5918C1254.05 67.3749 1272.24 63.1874 1290.05 57.2509C1305.56 52.0799 1317.98 42.309 1332.12 34.353C1339.23 30.3535 1344.82 26.1935 1352.72 23.1021C1363.67 18.8169 1375.41 14.3378 1386.87 11.6927C1400.16 8.62637 1414.23 2.17369 1427.91 6.38417C1443.16 11.0769 1461.44 12.4058 1477.51 12.4058" stroke="#C8E8C3" stroke-width="10" stroke-linecap="round"/>
</svg>
